<?xml version="1.0" encoding="utf-8"?>
<svg viewBox="25.343 42.331 347.286 129.567" xmlns="http://www.w3.org/2000/svg">
  <path id="path0" d="M 222.809 70.332 C 222.809 70.202 222.908 70.132 223.053 70.116 C 222.859 69.947 222.639 69.733 222.713 69.698 C 222.864 69.626 223.11 69.602 223.277 69.623 C 223.577 69.659 224.013 69.85 224.278 70.114 C 224.411 70.248 224.592 70.328 224.747 70.328 C 224.923 70.328 225.142 70.372 225.276 70.431 C 225.354 70.465 225.471 70.541 225.534 70.606 C 225.611 70.686 225.71 70.895 225.71 71.032 C 225.71 71.063 225.813 71.194 226.049 71.43 C 226.285 71.666 226.414 71.769 226.446 71.769 C 226.776 71.769 227.287 72.135 227.537 72.457 C 227.66 72.657 227.79 72.729 227.871 72.729 C 228.232 72.729 228.812 73.145 229.115 73.53 C 229.316 73.812 229.466 73.93 229.492 73.93 C 229.818 73.93 230.454 74.377 230.857 74.809 C 231.21 75.186 231.398 75.37 231.319 75.37 C 231.616 75.37 232.108 75.727 232.858 76.399 C 232.983 76.525 233.097 76.571 233.148 76.571 C 233.458 76.571 233.937 76.925 234.22 77.221 C 234.423 77.432 234.65 77.74 234.762 78.011 C 235.129 78.012 235.678 78.369 235.94 78.7 C 236.062 78.899 236.199 78.972 236.29 78.972 C 236.656 78.972 237.258 79.373 237.565 79.763 C 237.789 80.047 237.929 80.172 237.933 80.172 C 238.243 80.172 238.858 80.625 239.261 81.052 C 239.6 81.419 239.843 81.613 239.844 81.613 C 240.141 81.613 240.702 82.007 241.042 82.373 C 241.312 82.665 241.509 82.813 241.528 82.813 C 241.84 82.813 242.459 83.266 242.863 83.693 C 243.202 84.061 243.441 84.254 243.434 84.254 C 243.6 84.254 243.842 84.351 243.953 84.451 C 244.028 84.517 244.107 84.647 244.154 84.779 C 244.24 84.83 244.335 84.869 244.48 84.905 C 244.922 85.016 245.623 85.481 246.02 85.893 C 246.349 86.247 246.528 86.415 246.459 86.415 C 246.714 86.415 247.275 86.877 247.664 87.294 C 247.998 87.651 248.279 87.855 248.338 87.855 C 248.686 87.855 249.259 88.267 249.57 88.647 C 249.787 88.935 249.934 89.056 249.938 89.056 C 250.247 89.056 250.865 89.506 251.265 89.935 C 251.6 90.293 251.877 90.496 251.931 90.496 C 252.119 90.496 252.376 90.594 252.518 90.697 C 252.659 90.799 252.815 91.008 252.895 91.178 C 252.894 91.181 252.893 91.183 252.892 91.185 C 252.896 91.184 252.905 91.186 252.922 91.198 C 252.945 91.214 252.947 91.218 252.947 91.219 C 252.947 91.219 252.948 91.217 252.957 91.217 C 253.313 91.217 253.979 91.659 254.387 92.096 C 254.738 92.471 254.933 92.657 254.862 92.657 C 255.117 92.657 255.677 93.12 256.067 93.537 C 256.396 93.897 256.685 94.098 256.748 94.098 C 257.084 94.098 257.704 94.474 258.075 94.844 C 258.384 95.154 258.546 95.298 258.476 95.298 C 258.725 95.298 259.28 95.763 259.669 96.178 C 260 96.54 260.28 96.739 260.331 96.739 C 260.647 96.739 261.132 97.022 261.369 97.279 C 261.481 97.43 261.529 97.459 261.518 97.459 C 261.802 97.459 262.394 97.917 262.791 98.338 C 263.12 98.7 263.405 98.9 263.466 98.9 C 263.678 98.9 263.963 99.039 264.109 99.173 C 264.247 99.301 264.39 99.534 264.461 99.728 C 264.464 99.872 264.651 99.971 264.904 100.035 C 265.337 100.144 266.038 100.602 266.428 101.019 C 266.758 101.372 266.936 101.541 266.867 101.541 C 267.12 101.541 267.666 101.984 268.036 102.379 C 268.345 102.71 268.801 103.023 269.089 103.081 C 269.305 103.137 269.541 103.231 269.694 103.324 C 269.815 103.398 269.977 103.564 270.065 103.738 C 270.386 103.853 270.862 104.226 271.193 104.581 C 271.534 104.946 271.776 105.142 271.776 105.142 C 272.068 105.142 272.64 105.53 273.005 105.889 C 273.302 106.192 273.509 106.343 273.504 106.343 C 273.796 106.343 274.398 106.797 274.795 107.222 C 275.129 107.579 275.41 107.783 275.47 107.783 C 275.682 107.783 275.968 107.922 276.114 108.057 C 276.252 108.184 276.404 108.415 276.466 108.611 C 276.508 108.743 276.648 108.876 276.907 108.917 C 277.327 109.03 277.919 109.378 278.194 109.672 C 278.344 109.862 278.507 109.944 278.6 109.944 C 278.765 109.944 278.982 109.995 279.107 110.06 C 279.26 110.14 279.492 110.428 279.492 110.648 C 279.492 110.679 279.595 110.81 279.831 111.046 C 280.067 111.282 280.196 111.385 280.227 111.385 C 280.556 111.385 281.075 111.735 281.309 112.06 C 281.35 112.118 281.381 112.154 281.412 112.182 C 281.436 112.177 281.458 112.173 281.478 112.172 C 281.582 112.165 281.768 112.214 281.855 112.272 C 281.951 112.338 282.042 112.487 282.092 112.63 C 282.413 112.754 282.873 113.12 283.198 113.465 C 283.531 113.828 283.801 114.026 283.837 114.026 C 284.166 114.026 284.688 114.394 284.928 114.731 C 285.08 114.943 285.487 115.255 285.87 115.438 C 286.105 115.55 286.343 115.693 286.505 115.814 C 286.612 115.894 286.747 116.035 286.837 116.184 C 286.855 116.186 286.878 116.187 286.915 116.187 C 287.181 116.187 287.552 116.322 287.711 116.559 C 287.843 116.758 287.892 117.09 287.895 117.407 L 287.895 118.627 L 264.366 118.627 L 264.366 125.07 L 265.786 125.07 C 266.359 125.07 266.871 125.097 267.229 125.141 C 267.415 125.165 267.594 125.199 267.714 125.236 C 267.785 125.259 267.887 125.303 267.949 125.344 C 267.973 125.36 268.001 125.387 268.03 125.421 C 268.152 125.446 268.329 125.467 268.586 125.487 C 269.114 125.528 269.875 125.55 270.828 125.55 C 271.796 125.55 272.596 125.574 273.148 125.616 C 273.429 125.638 273.671 125.667 273.834 125.701 C 273.924 125.72 274.033 125.751 274.102 125.783 C 274.149 125.805 274.234 125.858 274.281 125.902 C 274.281 125.902 274.282 125.903 274.283 125.904 C 274.405 125.928 274.579 125.948 274.829 125.968 C 275.357 126.008 276.118 126.031 277.071 126.031 C 278.039 126.031 278.838 126.055 279.39 126.097 C 279.671 126.118 279.913 126.148 280.076 126.181 C 280.166 126.2 280.274 126.231 280.344 126.263 C 280.391 126.285 280.476 126.338 280.523 126.382 C 280.523 126.382 280.524 126.383 280.525 126.384 C 280.647 126.408 280.821 126.428 281.071 126.448 C 281.599 126.488 282.36 126.511 283.313 126.511 C 284.179 126.511 284.976 126.535 285.551 126.573 C 285.842 126.593 286.094 126.618 286.266 126.645 C 286.359 126.659 286.459 126.681 286.526 126.702 C 286.569 126.717 286.646 126.75 286.693 126.78 C 286.694 126.781 286.695 126.782 286.697 126.783 C 286.761 126.794 286.847 126.806 286.964 126.819 C 287.261 126.852 287.69 126.886 288.23 126.921 C 289.313 126.991 290.805 127.058 292.452 127.106 C 294.106 127.155 295.616 127.223 296.708 127.295 C 297.256 127.33 297.709 127.367 298.022 127.403 C 298.181 127.421 298.321 127.441 298.416 127.46 C 298.47 127.471 298.539 127.489 298.585 127.507 C 298.617 127.519 298.683 127.551 298.723 127.579 C 298.734 127.582 298.748 127.584 298.765 127.587 C 298.909 127.61 299.115 127.631 299.39 127.649 C 299.947 127.687 300.71 127.711 301.561 127.711 C 302.528 127.711 303.328 127.735 303.88 127.777 C 304.161 127.799 304.402 127.828 304.565 127.862 C 304.656 127.88 304.764 127.912 304.833 127.943 C 304.88 127.964 304.965 128.017 305.011 128.061 C 305.013 128.062 305.014 128.063 305.015 128.064 C 305.137 128.088 305.311 128.109 305.56 128.128 C 306.089 128.169 306.85 128.191 307.803 128.191 C 308.771 128.191 309.57 128.215 310.122 128.257 C 310.403 128.279 310.645 128.309 310.808 128.342 C 310.898 128.361 311.007 128.392 311.076 128.424 C 311.124 128.446 311.209 128.499 311.255 128.543 C 311.255 128.543 311.256 128.544 311.257 128.545 C 311.379 128.569 311.554 128.589 311.803 128.609 C 312.332 128.649 313.093 128.672 314.046 128.672 C 315.013 128.672 315.813 128.696 316.365 128.738 C 316.646 128.76 316.887 128.789 317.05 128.822 C 317.141 128.841 317.249 128.872 317.319 128.904 C 317.366 128.926 317.451 128.979 317.497 129.022 C 317.498 129.023 317.499 129.024 317.5 129.025 C 317.622 129.049 317.796 129.07 318.045 129.089 C 318.574 129.13 319.335 129.152 320.288 129.152 C 321.256 129.152 322.055 129.176 322.607 129.218 C 322.888 129.24 323.13 129.269 323.293 129.302 C 323.383 129.321 323.491 129.352 323.561 129.384 C 323.608 129.406 323.693 129.459 323.74 129.503 C 323.741 129.503 323.741 129.504 323.742 129.505 C 323.864 129.529 324.039 129.55 324.288 129.569 C 324.817 129.61 325.578 129.632 326.531 129.632 C 327.397 129.632 328.194 129.656 328.769 129.695 C 329.059 129.715 329.311 129.74 329.484 129.767 C 329.577 129.782 329.677 129.804 329.744 129.825 C 329.788 129.84 329.865 129.874 329.911 129.904 C 329.912 129.905 329.913 129.905 329.913 129.906 C 329.979 129.917 330.068 129.928 330.19 129.942 C 330.493 129.975 330.931 130.01 331.482 130.045 C 332.587 130.114 334.109 130.182 335.788 130.23 C 337.476 130.279 339.016 130.347 340.13 130.418 C 340.689 130.454 341.151 130.491 341.469 130.526 C 341.632 130.544 341.774 130.564 341.869 130.583 C 341.924 130.594 341.994 130.611 342.039 130.628 C 342.072 130.641 342.14 130.674 342.179 130.702 C 342.191 130.704 342.205 130.706 342.223 130.709 C 342.366 130.732 342.573 130.753 342.848 130.772 C 343.404 130.809 344.167 130.833 345.018 130.833 C 345.986 130.833 346.785 130.857 347.337 130.899 C 347.618 130.921 347.86 130.95 348.023 130.983 C 348.113 131.002 348.221 131.033 348.291 131.065 C 348.338 131.087 348.423 131.14 348.47 131.184 C 348.47 131.184 348.471 131.185 348.472 131.186 C 348.594 131.21 348.769 131.23 349.018 131.25 C 349.547 131.29 350.308 131.313 351.261 131.313 C 352.228 131.313 353.028 131.337 353.58 131.379 C 353.861 131.401 354.102 131.43 354.265 131.463 C 354.356 131.482 354.464 131.513 354.534 131.545 C 354.581 131.567 354.666 131.62 354.712 131.663 C 354.713 131.664 354.714 131.665 354.715 131.666 C 354.837 131.69 355.011 131.711 355.26 131.73 C 355.789 131.771 356.55 131.793 357.503 131.793 C 358.471 131.793 359.27 131.817 359.822 131.859 C 360.103 131.881 360.345 131.91 360.508 131.943 C 360.598 131.962 360.707 131.993 360.776 132.025 C 360.823 132.047 360.908 132.1 360.955 132.144 C 360.964 132.153 360.975 132.165 360.985 132.179 C 361.025 132.188 361.077 132.198 361.151 132.209 C 361.41 132.249 361.762 132.273 362.185 132.273 C 362.811 132.273 363.258 132.295 363.538 132.36 C 363.704 132.398 363.906 132.49 364.015 132.592 C 364.149 132.717 364.245 132.978 364.245 133.133 C 364.245 133.275 364.108 133.503 364.018 133.568 C 363.965 133.606 363.871 133.649 363.814 133.667 C 363.729 133.693 363.594 133.719 363.447 133.736 C 363.171 133.77 362.723 133.799 362.053 133.823 C 360.722 133.872 358.449 133.908 354.685 133.933 C 347.161 133.983 333.654 133.993 309.724 133.993 L 255.202 133.993 L 255.202 109.464 L 259.304 109.464 C 260.287 109.464 261.055 109.447 261.619 109.413 C 261.577 109.357 261.538 109.293 261.508 109.228 C 261.186 109.113 260.71 108.739 260.379 108.384 C 260.046 108.028 259.758 107.823 259.688 107.823 C 259.518 107.823 259.292 107.763 259.164 107.689 C 259.056 107.626 258.918 107.46 258.848 107.292 C 258.785 107.246 258.726 107.213 258.617 107.182 C 258.251 107.052 257.614 106.599 257.227 106.19 C 256.906 105.842 256.677 105.662 256.675 105.662 C 256.34 105.662 255.795 105.261 255.473 104.935 C 255.311 104.771 255.145 104.573 255.045 104.415 C 255.009 104.359 254.97 104.285 254.94 104.215 C 254.535 104.166 253.929 103.82 253.569 103.474 C 253.285 103.18 253.025 103.021 252.952 103.021 C 252.79 103.021 252.573 102.967 252.45 102.899 C 252.301 102.818 252.081 102.532 252.081 102.318 C 252.081 102.297 251.976 102.163 251.745 101.921 C 251.514 101.681 251.4 101.58 251.395 101.58 C 251.115 101.58 250.639 101.32 250.392 101.073 C 250.259 100.94 250.077 100.86 249.923 100.86 C 249.747 100.86 249.529 100.817 249.395 100.758 C 249.317 100.724 249.2 100.649 249.137 100.584 C 249.06 100.503 248.96 100.294 248.96 100.157 C 248.96 100.135 248.855 100.001 248.624 99.761 C 248.392 99.521 248.276 99.42 248.267 99.42 C 247.956 99.42 247.334 98.969 246.934 98.54 C 246.591 98.173 246.359 97.979 246.373 97.979 C 246.09 97.979 245.527 97.593 245.166 97.232 C 244.869 96.935 244.655 96.779 244.645 96.779 C 244.344 96.779 243.746 96.343 243.364 95.933 C 243.043 95.59 242.624 95.269 242.4 95.211 C 242.216 95.15 242.009 95.048 241.878 94.953 C 241.788 94.887 241.676 94.757 241.6 94.617 C 241.265 94.602 240.783 94.287 240.486 94.002 C 240.262 93.786 240.016 93.463 239.901 93.173 C 239.556 93.132 238.989 92.779 238.64 92.43 C 238.347 92.137 238.113 91.977 238.071 91.977 C 237.737 91.977 237.141 91.502 236.79 91.068 C 236.516 90.713 236.31 90.538 236.288 90.538 C 235.966 90.536 235.35 90.101 234.961 89.69 C 234.643 89.345 234.219 89.026 233.997 88.969 C 233.813 88.907 233.605 88.806 233.474 88.71 C 233.384 88.644 233.271 88.514 233.196 88.374 C 232.836 88.347 232.202 87.919 231.808 87.496 C 231.455 87.119 231.266 86.935 231.345 86.935 C 231.104 86.935 230.588 86.536 230.236 86.187 C 229.953 85.894 229.688 85.734 229.609 85.734 C 229.276 85.734 228.78 85.408 228.478 85.115 C 228.255 84.9 228.011 84.578 227.897 84.29 C 227.551 84.249 226.984 83.895 226.635 83.546 C 226.34 83.251 226.116 83.093 226.093 83.093 C 225.78 83.093 225.288 82.723 225.044 82.405 C 224.918 82.203 224.797 82.133 224.73 82.133 C 224.385 82.133 223.86 81.772 223.605 81.445 C 223.519 81.29 223.393 81.229 223.239 81.191 C 223.193 81.298 223.129 81.396 223.068 81.451 C 222.956 81.553 222.712 81.652 222.545 81.652 C 222.551 81.652 222.331 81.831 222.01 82.174 C 221.62 82.591 220.917 83.036 220.486 83.158 C 220.227 83.2 220.045 83.322 220.044 83.466 C 219.973 83.66 219.829 83.893 219.691 84.02 C 219.545 84.155 219.26 84.294 219.048 84.294 C 218.988 84.294 218.706 84.498 218.372 84.855 C 217.964 85.292 217.298 85.734 216.943 85.734 C 216.92 85.734 216.951 85.723 216.907 85.753 C 216.891 85.764 216.884 85.767 216.881 85.768 C 216.881 85.769 216.881 85.77 216.88 85.773 C 216.813 85.947 216.644 86.151 216.504 86.253 C 216.362 86.356 216.105 86.454 215.917 86.454 C 215.863 86.454 215.586 86.658 215.251 87.016 C 214.862 87.433 214.245 87.857 213.89 87.893 C 213.888 87.895 213.885 87.899 213.88 87.903 C 213.83 87.95 213.814 87.958 213.802 88.027 C 213.637 88.409 213.101 88.864 212.65 89 C 212.372 89.056 211.923 89.367 211.613 89.698 C 211.243 90.093 210.697 90.536 210.444 90.536 C 210.513 90.536 210.335 90.705 210.005 91.058 C 209.614 91.475 208.906 91.935 208.465 92.046 C 208.32 92.082 208.226 92.121 208.14 92.172 C 208.093 92.304 208.013 92.434 207.938 92.501 C 207.827 92.6 207.585 92.697 207.419 92.697 C 207.426 92.697 207.191 92.892 206.848 93.258 C 206.445 93.69 205.809 94.137 205.483 94.137 C 205.456 94.137 205.313 94.261 205.105 94.538 C 204.807 94.934 204.193 95.338 203.808 95.338 C 203.798 95.338 203.79 95.338 203.784 95.338 C 203.733 95.435 203.666 95.522 203.613 95.565 C 203.535 95.625 203.404 95.69 203.308 95.722 C 203.136 95.779 202.876 95.818 202.641 95.818 C 202.406 95.818 202.146 95.779 201.974 95.722 C 201.878 95.69 201.747 95.625 201.669 95.565 C 201.614 95.522 201.546 95.432 201.495 95.332 C 201.157 95.282 200.61 94.933 200.268 94.592 C 199.971 94.294 199.754 94.137 199.739 94.137 C 199.431 94.137 198.953 93.781 198.671 93.485 C 198.469 93.274 198.242 92.965 198.13 92.695 C 197.811 92.67 197.333 92.432 197.091 92.191 C 196.958 92.057 196.776 91.977 196.622 91.977 C 196.35 91.977 195.959 91.817 195.811 91.544 C 195.697 91.332 195.658 90.989 195.658 90.619 C 195.658 90.097 195.81 89.562 196.044 89.223 C 196.283 88.876 196.751 88.594 197.182 88.577 C 197.257 88.437 197.37 88.307 197.46 88.241 C 197.59 88.145 197.798 88.043 197.982 87.982 C 198.206 87.923 198.629 87.606 198.946 87.259 C 199.336 86.85 199.948 86.463 200.271 86.413 C 200.295 86.467 200.497 86.234 200.775 85.882 C 201.121 85.443 201.723 84.974 202.057 84.974 C 202.098 84.974 202.336 84.817 202.626 84.52 C 202.98 84.175 203.542 83.815 203.879 83.777 C 203.881 83.775 203.883 83.773 203.886 83.77 C 203.936 83.723 203.952 83.714 203.966 83.643 C 204.037 83.449 204.178 83.217 204.314 83.089 C 204.458 82.954 204.744 82.813 204.955 82.813 C 205.055 82.813 205.201 82.762 205.317 82.641 C 206.148 81.9 206.558 81.635 207.014 81.614 C 207.126 81.344 207.353 81.036 207.554 80.824 C 207.836 80.528 208.314 80.172 208.622 80.172 C 208.642 80.172 208.888 80.006 209.212 79.705 C 209.593 79.352 210.148 78.972 210.405 78.972 C 210.36 78.972 210.573 78.784 210.92 78.411 C 211.327 77.981 211.96 77.531 212.288 77.531 C 212.326 77.531 212.428 77.464 212.56 77.258 C 212.771 76.984 213.167 76.674 213.475 76.592 C 213.526 76.457 213.612 76.321 213.702 76.259 C 213.789 76.201 213.976 76.151 214.08 76.158 C 214.1 76.159 214.122 76.163 214.146 76.168 C 214.177 76.14 214.207 76.104 214.249 76.046 C 214.483 75.721 215.003 75.37 215.331 75.37 C 215.362 75.37 215.492 75.267 215.728 75.031 C 215.964 74.795 216.067 74.665 216.067 74.633 C 216.067 74.418 216.287 74.132 216.436 74.051 C 216.56 73.983 216.776 73.93 216.938 73.93 C 217.011 73.93 217.271 73.771 217.555 73.477 C 217.94 73.104 218.598 72.729 218.979 72.729 C 218.995 72.729 219.008 72.729 219.019 72.729 C 219.132 72.455 219.361 72.145 219.567 71.933 C 219.853 71.638 220.335 71.289 220.648 71.289 C 220.68 71.289 220.804 71.213 220.963 71.014 C 221.227 70.725 221.76 70.373 222.12 70.249 C 222.203 70.228 222.299 70.168 222.387 70.101 C 222.431 70.003 222.602 70.233 222.746 70.456 C 222.786 70.412 222.809 70.37 222.809 70.332 Z M 189.75 47.967 C 190.005 47.641 190.533 47.279 190.876 47.279 C 191.221 47.279 191.748 47.641 192.003 47.967 C 192.138 48.176 192.229 48.239 192.25 48.239 C 192.416 48.239 192.653 48.321 192.772 48.412 C 192.858 48.478 192.955 48.619 193.011 48.763 C 193.097 48.815 193.191 48.857 193.338 48.891 C 193.777 49.014 194.488 49.461 194.879 49.878 C 195.209 50.231 195.387 50.4 195.318 50.4 C 195.573 50.4 196.133 50.863 196.523 51.279 C 196.852 51.64 197.145 51.841 197.215 51.841 C 197.398 51.841 197.649 51.923 197.781 52.019 C 197.843 52.065 197.91 52.143 197.966 52.234 C 198.06 52.257 198.173 52.308 198.24 52.352 C 198.374 52.438 198.541 52.611 198.66 52.776 C 198.799 52.989 198.857 53.041 198.837 53.041 C 199.128 53.041 199.729 53.496 200.125 53.921 C 200.46 54.279 200.737 54.482 200.791 54.482 C 200.979 54.482 201.236 54.58 201.378 54.683 C 201.518 54.785 201.687 54.989 201.754 55.163 C 201.761 55.183 201.763 55.195 201.762 55.202 C 202.084 55.206 202.742 55.639 203.189 56.062 C 203.566 56.428 203.896 56.643 203.959 56.643 C 204.12 56.643 204.337 56.697 204.459 56.766 C 204.607 56.849 204.822 57.133 204.822 57.346 C 204.822 57.387 204.924 57.514 205.164 57.746 C 205.404 57.978 205.546 58.083 205.599 58.083 C 205.94 58.083 206.563 58.459 206.935 58.83 C 207.244 59.14 207.406 59.284 207.336 59.284 C 207.585 59.284 208.141 59.748 208.528 60.163 C 208.863 60.521 209.139 60.724 209.191 60.724 C 209.507 60.724 210.007 60.998 210.229 61.266 C 210.348 61.41 210.388 61.445 210.377 61.445 C 210.661 61.445 211.252 61.903 211.65 62.324 C 211.984 62.688 212.25 62.885 212.284 62.885 C 212.617 62.885 213.166 63.307 213.462 63.686 C 213.66 63.966 213.82 64.086 213.863 64.086 C 214.2 64.086 214.846 64.531 215.251 64.965 C 215.585 65.322 215.866 65.526 215.926 65.526 C 216.138 65.526 216.424 65.665 216.57 65.8 C 216.709 65.927 216.852 66.162 216.924 66.357 C 216.936 66.427 216.952 66.434 217.002 66.481 C 217.005 66.484 217.007 66.486 217.009 66.488 C 217.417 66.509 217.868 66.784 218.105 67.105 C 218.34 67.425 218.507 67.936 218.507 68.41 C 218.507 68.72 218.458 69.039 218.345 69.234 C 218.205 69.477 217.841 69.648 217.58 69.648 C 217.477 69.648 217.331 69.723 217.212 69.921 C 216.984 70.226 216.538 70.608 216.263 70.608 C 216.223 70.608 216.094 70.71 215.349 71.38 C 215.107 71.584 214.659 71.809 214.391 71.809 C 214.385 71.809 214.272 71.91 214.041 72.15 C 213.81 72.391 213.705 72.525 213.705 72.546 C 213.705 72.687 213.6 72.9 213.52 72.979 C 213.456 73.043 213.338 73.117 213.259 73.15 C 213.123 73.207 212.904 73.249 212.725 73.249 C 212.699 73.249 212.681 73.249 212.667 73.25 C 212.617 73.347 212.55 73.434 212.497 73.476 C 212.419 73.536 212.288 73.601 212.192 73.633 C 212.02 73.69 211.76 73.729 211.525 73.729 C 211.289 73.729 211.029 73.69 210.858 73.633 C 210.761 73.601 210.63 73.537 210.552 73.476 C 210.492 73.428 210.415 73.324 210.363 73.211 C 210.041 73.094 209.568 72.723 209.239 72.37 C 208.899 72.007 208.649 71.809 208.635 71.809 C 208.328 71.809 207.757 71.416 207.415 71.048 C 207.147 70.758 206.941 70.608 206.907 70.608 C 206.586 70.608 206.083 70.24 205.836 69.92 C 205.706 69.715 205.6 69.648 205.557 69.648 C 205.235 69.648 204.747 69.309 204.453 69.015 C 204.241 68.802 204.005 68.487 203.891 68.207 C 203.88 68.207 203.867 68.207 203.852 68.207 C 203.472 68.207 202.807 67.838 202.429 67.461 C 202.14 67.171 201.885 67.007 201.812 67.007 C 201.65 67.007 201.433 66.953 201.309 66.885 C 201.16 66.803 200.941 66.517 200.941 66.303 C 200.941 66.284 200.836 66.149 200.606 65.908 C 200.375 65.666 200.264 65.566 200.262 65.566 C 199.857 65.566 199.429 65.283 198.594 64.538 C 198.455 64.405 198.38 64.366 198.389 64.366 C 198.112 64.366 197.656 63.987 197.433 63.677 C 197.294 63.483 197.187 63.403 197.124 63.403 C 196.77 63.401 196.148 62.936 195.799 62.493 C 195.521 62.141 195.322 61.965 195.302 61.965 C 194.988 61.965 194.397 61.58 194.027 61.218 C 193.73 60.916 193.517 60.764 193.511 60.764 C 193.24 60.764 192.774 60.502 192.529 60.258 C 192.412 60.14 192.297 59.998 192.24 59.898 C 192.201 59.83 192.145 59.676 192.146 59.569 C 192.146 59.567 192.146 59.566 192.146 59.564 C 192.142 59.561 192.139 59.558 192.135 59.554 C 191.946 59.333 191.605 59.231 191.189 59.183 C 190.78 59.136 190.56 59.161 190.444 59.278 C 190.198 59.523 189.754 59.804 189.506 59.804 C 189.558 59.804 189.512 59.856 189.361 60.077 C 189.114 60.397 188.612 60.764 188.291 60.764 C 188.253 60.764 188.02 60.924 187.727 61.218 C 187.367 61.578 186.803 61.965 186.52 61.965 C 186.534 61.965 186.302 62.159 185.959 62.526 C 185.559 62.955 184.937 63.405 184.626 63.405 C 184.617 63.405 184.501 63.506 184.269 63.746 C 184.038 63.986 183.933 64.12 183.933 64.142 C 183.933 64.281 183.832 64.491 183.754 64.571 C 183.69 64.635 183.573 64.71 183.495 64.744 C 183.361 64.803 183.141 64.846 182.964 64.846 C 182.828 64.846 182.524 65.011 182.248 65.3 C 181.894 65.645 181.333 66.005 180.995 66.043 C 180.993 66.045 180.991 66.047 180.988 66.05 C 180.938 66.097 180.922 66.106 180.909 66.177 C 180.838 66.37 180.699 66.601 180.564 66.729 C 180.421 66.864 180.136 67.007 179.925 67.007 C 179.863 67.007 179.614 67.17 179.324 67.461 C 178.963 67.821 178.4 68.207 178.117 68.207 C 178.131 68.207 177.897 68.399 177.557 68.768 C 177.154 69.195 176.539 69.648 176.23 69.648 C 176.222 69.648 175.976 69.845 175.635 70.209 C 175.238 70.634 174.636 71.088 174.344 71.088 C 174.349 71.088 174.142 71.239 173.845 71.541 C 173.475 71.905 172.885 72.289 172.573 72.289 C 172.544 72.289 172.448 72.355 172.314 72.562 C 172.086 72.867 171.64 73.249 171.365 73.249 C 171.325 73.249 171.197 73.35 170.452 74.02 C 170.209 74.226 169.76 74.45 169.493 74.45 C 169.487 74.45 169.374 74.551 169.143 74.791 C 168.912 75.032 168.807 75.166 168.807 75.187 C 168.807 75.402 168.587 75.688 168.438 75.769 C 168.314 75.837 168.098 75.89 167.936 75.89 C 167.863 75.89 167.603 76.049 167.319 76.343 C 166.955 76.702 166.395 77.091 166.112 77.091 C 166.126 77.091 165.894 77.285 165.551 77.652 C 165.148 78.084 164.51 78.531 164.182 78.531 C 164.145 78.531 164.044 78.597 163.91 78.804 C 163.674 79.118 163.204 79.492 162.91 79.492 C 162.911 79.492 162.68 79.655 162.353 79.959 C 161.966 80.318 161.378 80.692 161.091 80.692 C 161.091 80.692 160.848 80.886 160.509 81.253 C 160.121 81.668 159.566 82.133 159.317 82.133 C 159.387 82.133 159.224 82.276 158.915 82.587 C 158.53 82.958 157.872 83.333 157.492 83.333 C 157.477 83.333 157.465 83.333 157.454 83.333 C 157.34 83.613 157.104 83.928 156.891 84.141 C 156.597 84.435 156.109 84.774 155.787 84.774 C 155.744 84.774 155.65 84.849 155.508 85.046 C 155.265 85.384 154.715 85.734 154.362 85.734 C 154.291 85.734 154.12 85.865 153.918 86.134 C 153.631 86.516 153.081 86.935 152.753 86.935 C 152.745 86.935 152.553 87.078 152.259 87.334 C 152.285 87.335 152.311 87.336 152.337 87.337 C 152.984 87.36 153.876 87.375 154.862 87.375 L 158.963 87.375 L 158.963 98.319 C 158.963 101.718 158.984 104.324 159.024 106.081 C 159.041 106.804 159.061 107.378 159.084 107.804 C 159.142 107.791 159.2 107.783 159.251 107.783 C 159.272 107.783 159.353 107.712 159.498 107.511 C 159.734 107.183 160.247 106.823 160.567 106.823 C 160.727 106.823 160.813 106.762 161.602 106.051 C 161.823 105.858 162.213 105.622 162.432 105.622 C 162.357 105.622 162.548 105.437 162.9 105.061 C 163.299 104.634 163.911 104.182 164.213 104.182 C 164.223 104.182 164.437 104.026 164.734 103.728 C 165.095 103.368 165.658 102.981 165.941 102.981 C 165.927 102.981 166.159 102.787 166.502 102.42 C 166.905 101.988 167.54 101.541 167.866 101.541 C 167.893 101.541 167.95 101.486 168.068 101.296 C 168.271 100.972 168.738 100.58 169.04 100.58 C 169.131 100.58 169.237 100.5 170.005 99.808 C 170.246 99.605 170.687 99.38 170.948 99.38 C 170.976 99.38 171.079 99.317 171.229 99.166 C 171.24 99.156 171.249 99.147 171.257 99.138 C 171.256 99.03 171.312 98.875 171.351 98.806 C 171.408 98.706 171.524 98.566 171.641 98.447 C 171.892 98.208 172.35 97.939 172.623 97.939 C 172.628 97.939 172.839 97.784 173.137 97.485 C 173.504 97.119 174.1 96.739 174.414 96.739 C 174.434 96.739 174.633 96.563 174.911 96.211 C 175.26 95.768 175.884 95.354 176.236 95.3 C 176.298 95.342 176.417 95.228 176.546 95.025 C 176.789 94.707 177.28 94.338 177.593 94.338 C 177.617 94.338 177.843 94.183 178.137 93.884 C 178.505 93.523 179.09 93.137 179.398 93.135 C 179.412 93.135 179.608 92.958 179.887 92.605 C 180.225 92.177 180.783 91.697 181.077 91.697 C 181.086 91.697 181.173 91.655 181.307 91.525 C 182.136 90.786 182.547 90.519 183.002 90.497 C 183.115 90.217 183.352 89.902 183.565 89.688 C 183.859 89.394 184.347 89.056 184.669 89.056 C 184.712 89.056 184.806 88.981 184.948 88.784 C 185.191 88.447 185.741 88.095 186.094 88.095 C 186.165 88.095 186.345 87.971 186.538 87.695 C 186.94 87.22 187.662 86.89 188.235 86.861 C 188.53 86.846 188.884 86.9 189.134 87.013 C 189.397 87.133 189.668 87.432 189.792 87.723 C 189.797 87.782 189.809 87.776 189.867 87.822 C 189.923 87.867 189.892 87.855 189.921 87.855 C 190.294 87.855 190.951 88.225 191.329 88.602 C 191.618 88.892 191.873 89.056 191.946 89.056 C 192.108 89.056 192.324 89.109 192.448 89.177 C 192.597 89.258 192.817 89.544 192.817 89.759 C 192.817 89.778 192.922 89.913 193.152 90.154 C 193.382 90.396 193.494 90.496 193.496 90.496 C 193.901 90.496 194.329 90.78 195.163 91.525 C 195.301 91.657 195.377 91.697 195.368 91.697 C 195.644 91.697 196.094 92.078 196.323 92.384 C 196.457 92.591 196.558 92.657 196.595 92.657 C 196.923 92.657 197.557 93.107 197.965 93.537 C 198.305 93.906 198.539 94.098 198.525 94.098 C 198.808 94.098 199.371 94.484 199.732 94.844 C 200.028 95.141 200.246 95.298 200.261 95.298 C 200.569 95.298 201.047 95.654 201.329 95.95 C 201.531 96.161 201.757 96.468 201.869 96.739 C 201.881 96.739 201.894 96.739 201.91 96.739 C 202.29 96.739 202.948 97.114 203.332 97.485 C 203.62 97.781 203.872 97.939 203.934 97.939 C 204.145 97.939 204.43 98.081 204.574 98.217 C 204.708 98.345 204.848 98.576 204.918 98.768 C 204.93 98.837 204.945 98.843 204.996 98.889 C 205.002 98.894 205.006 98.898 205.008 98.901 C 205.342 98.924 205.845 99.23 206.111 99.515 C 206.285 99.724 206.712 100.036 207.075 100.221 C 207.513 100.456 208.085 100.928 208.325 101.252 C 208.462 101.47 208.565 101.541 208.6 101.541 C 208.928 101.541 209.566 101.988 209.969 102.42 C 210.317 102.791 210.528 102.981 210.483 102.981 C 210.74 102.981 211.294 103.365 211.677 103.715 C 211.995 104.016 212.259 104.182 212.301 104.182 C 212.622 104.182 213.124 104.549 213.371 104.87 C 213.524 105.092 213.566 105.142 213.509 105.142 C 213.768 105.142 214.305 105.536 214.662 105.889 C 214.946 106.183 215.21 106.343 215.289 106.343 C 215.622 106.343 216.118 106.669 216.42 106.962 C 216.643 107.177 216.887 107.499 217.001 107.787 C 217.346 107.829 217.91 108.186 218.263 108.531 C 218.552 108.828 218.79 108.984 218.831 108.984 C 219.166 108.984 219.767 109.454 220.113 109.892 C 220.388 110.239 220.607 110.422 220.657 110.422 C 220.998 110.424 221.521 110.787 221.775 111.113 C 221.928 111.336 221.969 111.385 221.912 111.385 C 222.245 111.385 222.706 111.708 223.493 112.412 C 223.621 112.539 223.732 112.585 223.776 112.585 C 224.082 112.585 224.693 113.039 225.096 113.465 C 225.447 113.843 225.636 114.026 225.557 114.026 C 225.797 114.026 226.315 114.422 226.666 114.772 C 226.954 115.061 227.214 115.226 227.294 115.226 C 227.627 115.226 228.123 115.553 228.425 115.846 C 228.646 116.06 228.889 116.38 229.004 116.667 C 229.371 116.67 229.933 117.015 230.178 117.355 C 230.32 117.552 230.414 117.627 230.458 117.627 C 230.783 117.627 231.371 118.02 231.721 118.388 C 231.99 118.686 232.18 118.828 232.185 118.828 C 232.488 118.828 233.1 119.28 233.498 119.707 C 233.851 120.084 234.039 120.268 233.96 120.268 C 234.257 120.268 234.749 120.625 235.499 121.297 C 235.625 121.423 235.736 121.469 235.781 121.469 C 236.085 121.469 236.701 121.92 237.1 122.348 C 237.447 122.719 237.66 122.909 237.618 122.909 C 237.897 122.909 238.35 123.289 238.58 123.597 C 238.701 123.795 238.846 123.87 238.949 123.87 C 239.137 123.87 239.387 123.944 239.525 124.034 C 239.594 124.08 239.671 124.163 239.735 124.26 C 239.83 124.283 239.947 124.335 240.017 124.38 C 240.15 124.467 240.318 124.64 240.438 124.806 C 240.575 125.018 240.634 125.07 240.614 125.07 C 240.905 125.07 241.503 125.526 241.903 125.95 C 242.241 126.317 242.484 126.511 242.485 126.511 C 242.782 126.511 243.343 126.905 243.683 127.271 C 243.953 127.563 244.15 127.711 244.169 127.711 C 244.481 127.711 245.1 128.164 245.504 128.591 C 245.849 128.964 246.064 129.152 246.022 129.152 C 246.301 129.152 246.755 129.533 246.985 129.84 C 247.105 130.038 247.245 130.112 247.341 130.112 C 247.697 130.112 248.332 130.491 248.712 130.859 C 249.022 131.172 249.179 131.313 249.1 131.313 C 249.387 131.313 249.901 131.746 250.218 132.089 C 250.535 132.432 250.92 132.96 250.92 133.242 C 250.92 133.411 250.735 133.647 250.652 133.693 C 250.608 133.718 250.536 133.745 250.496 133.756 C 250.437 133.772 250.347 133.787 250.261 133.798 C 250.101 133.818 249.86 133.837 249.554 133.853 C 248.949 133.885 248.035 133.911 246.809 133.932 C 244.359 133.973 240.633 133.993 235.534 133.993 L 220.148 133.993 L 220.148 126.511 L 224.25 126.511 C 225.108 126.511 225.83 126.498 226.394 126.473 C 226.269 126.37 226.149 126.26 226.046 126.151 C 225.693 125.773 225.504 125.59 225.584 125.59 C 225.287 125.59 224.795 125.233 224.045 124.562 C 223.919 124.436 223.808 124.39 223.763 124.39 C 223.457 124.39 222.843 123.937 222.444 123.51 C 222.091 123.133 221.903 122.949 221.982 122.949 C 221.742 122.949 221.224 122.553 220.873 122.202 C 220.59 121.919 220.299 121.748 220.173 121.748 C 219.953 121.748 219.661 121.628 219.498 121.499 C 219.337 121.371 219.158 121.129 219.092 120.92 C 219.07 120.853 219.064 120.843 219.013 120.796 C 219.008 120.792 219.005 120.788 219.003 120.786 C 218.649 120.75 218.031 120.326 217.642 119.909 C 217.307 119.551 217.033 119.348 216.984 119.348 C 216.641 119.348 216.073 118.933 215.783 118.547 C 215.575 118.27 215.432 118.147 215.405 118.147 C 215.08 118.147 214.444 117.7 214.041 117.268 C 213.688 116.891 213.5 116.706 213.579 116.706 C 213.283 116.706 212.791 116.351 212.04 115.678 C 211.92 115.555 211.79 115.506 211.715 115.506 C 211.39 115.506 210.886 115.139 210.638 114.818 C 210.488 114.597 210.44 114.546 210.488 114.546 C 210.216 114.546 209.649 114.108 209.275 113.708 C 208.965 113.376 208.515 113.064 208.237 113.01 C 207.787 112.873 207.212 112.431 207.087 112.036 C 207.065 111.969 207.059 111.96 207.009 111.913 C 207.004 111.909 207 111.905 206.998 111.903 C 206.644 111.868 206.026 111.442 205.637 111.025 C 205.295 110.66 205.055 110.464 205.054 110.464 C 204.757 110.464 204.196 110.07 203.856 109.704 C 203.59 109.416 203.375 109.264 203.327 109.264 C 202.996 109.264 202.473 108.906 202.235 108.575 C 202.1 108.387 201.976 108.303 201.884 108.303 C 201.668 108.303 201.38 108.175 201.225 108.043 C 201.075 107.915 200.92 107.675 200.845 107.475 C 200.842 107.33 200.66 107.208 200.402 107.168 C 199.972 107.045 199.274 106.596 198.878 106.184 C 198.549 105.83 198.37 105.662 198.439 105.662 C 198.184 105.662 197.622 105.199 197.234 104.783 C 196.9 104.426 196.618 104.221 196.56 104.221 C 196.212 104.221 195.631 103.815 195.328 103.43 C 195.108 103.151 194.95 103.021 194.916 103.021 C 194.588 103.021 194.081 102.655 193.833 102.334 C 193.705 102.131 193.586 102.061 193.521 102.061 C 193.171 102.061 192.6 101.643 192.3 101.26 C 192.103 100.98 191.942 100.86 191.899 100.86 C 191.563 100.86 190.916 100.415 190.511 99.981 C 190.16 99.605 189.965 99.42 190.036 99.42 C 189.78 99.42 189.192 98.928 188.771 98.482 C 188.657 98.36 188.565 98.269 188.488 98.202 C 188.445 98.243 188.401 98.277 188.359 98.302 C 188.215 98.387 187.971 98.459 187.788 98.459 C 187.698 98.459 187.562 98.533 187.44 98.732 C 187.21 99.038 186.758 99.42 186.478 99.42 C 186.519 99.42 186.319 99.593 185.995 99.943 C 185.599 100.353 184.902 100.803 184.471 100.925 C 184.212 100.966 184.032 101.087 184.029 101.232 C 183.958 101.427 183.815 101.66 183.677 101.787 C 183.531 101.922 183.245 102.061 183.033 102.061 C 182.973 102.061 182.692 102.265 182.358 102.622 C 181.959 103.049 181.347 103.501 181.045 103.501 C 181.039 103.501 180.849 103.644 180.58 103.941 C 180.229 104.31 179.643 104.702 179.317 104.702 C 179.274 104.702 179.168 104.769 179.036 104.975 C 178.806 105.282 178.353 105.662 178.075 105.662 C 178.117 105.662 177.902 105.85 177.557 106.223 C 177.145 106.655 176.492 107.103 176.145 107.103 C 176.071 107.103 175.815 107.267 175.526 107.556 C 175.175 107.907 174.657 108.303 174.417 108.303 C 174.495 108.303 174.323 108.47 173.991 108.825 C 173.601 109.242 172.896 109.687 172.466 109.809 C 172.208 109.849 172.027 109.971 172.024 110.116 C 171.949 110.316 171.794 110.557 171.644 110.684 C 171.489 110.816 171.201 110.944 170.985 110.944 C 170.893 110.944 170.769 111.028 170.634 111.216 C 170.393 111.551 169.854 111.905 169.512 111.905 C 169.456 111.905 169.295 112.033 169.091 112.305 C 168.801 112.691 168.232 113.105 167.89 113.105 C 167.841 113.105 167.567 113.308 167.232 113.666 C 166.844 114.082 166.282 114.546 166.026 114.546 C 166.097 114.546 165.902 114.731 165.551 115.107 C 165.145 115.543 164.487 115.986 164.14 115.986 C 164.066 115.986 163.805 116.145 163.521 116.439 C 163.164 116.794 162.628 117.187 162.369 117.187 C 162.425 117.187 162.382 117.238 162.23 117.46 C 161.983 117.78 161.483 118.147 161.161 118.147 C 161.123 118.147 160.889 118.307 160.596 118.6 C 160.235 118.961 159.672 119.348 159.389 119.348 C 159.403 119.348 159.171 119.542 158.828 119.909 C 158.439 120.326 157.822 120.75 157.468 120.786 C 157.466 120.788 157.463 120.792 157.458 120.796 C 157.407 120.843 157.401 120.853 157.379 120.92 C 157.254 121.315 156.679 121.757 156.227 121.893 C 155.949 121.949 155.501 122.26 155.191 122.591 C 154.817 122.991 154.25 123.429 153.978 123.429 C 154.025 123.429 153.978 123.481 153.826 123.701 C 153.58 124.022 153.079 124.39 152.758 124.39 C 152.598 124.39 152.512 124.451 151.723 125.162 C 151.501 125.355 151.111 125.59 150.894 125.59 C 150.968 125.59 150.777 125.775 150.425 126.151 C 150.323 126.26 150.205 126.37 150.08 126.473 C 150.645 126.498 151.365 126.511 152.221 126.511 L 156.322 126.511 L 156.322 133.993 L 96.038 133.993 C 69.547 133.993 54.6 133.983 46.276 133.933 C 42.112 133.907 39.599 133.872 38.129 133.824 C 37.39 133.799 36.898 133.77 36.596 133.737 C 36.437 133.72 36.297 133.696 36.208 133.671 C 36.149 133.654 36.057 133.616 36.003 133.581 C 35.909 133.519 35.755 133.284 35.755 133.133 C 35.755 132.978 35.851 132.717 35.985 132.592 C 36.094 132.49 36.296 132.398 36.462 132.36 C 36.742 132.295 37.189 132.273 37.815 132.273 C 38.238 132.273 38.59 132.249 38.849 132.209 C 38.921 132.198 38.972 132.189 39.012 132.179 C 39.019 132.17 39.026 132.162 39.033 132.155 C 39.078 132.11 39.162 132.054 39.208 132.031 C 39.277 131.998 39.384 131.964 39.47 131.945 C 39.624 131.911 39.853 131.881 40.115 131.86 C 40.627 131.817 41.368 131.793 42.257 131.793 C 43.129 131.793 43.829 131.77 44.316 131.73 C 44.536 131.711 44.69 131.692 44.8 131.67 C 44.846 131.626 44.926 131.573 44.971 131.551 C 45.039 131.518 45.146 131.484 45.232 131.465 C 45.387 131.431 45.615 131.401 45.877 131.38 C 46.39 131.337 47.131 131.313 48.019 131.313 C 48.891 131.313 49.591 131.29 50.078 131.249 C 50.299 131.231 50.454 131.212 50.564 131.189 C 50.566 131.187 50.568 131.185 50.57 131.183 C 50.616 131.139 50.701 131.087 50.748 131.065 C 50.818 131.033 50.926 131.002 51.017 130.983 C 51.18 130.95 51.421 130.92 51.702 130.899 C 52.254 130.856 53.054 130.833 54.022 130.833 C 54.872 130.833 55.636 130.809 56.192 130.772 C 56.467 130.753 56.674 130.732 56.818 130.709 C 56.835 130.706 56.849 130.704 56.861 130.702 C 56.901 130.674 56.961 130.644 56.991 130.633 C 57.036 130.615 57.106 130.596 57.158 130.585 C 57.25 130.566 57.386 130.546 57.539 130.528 C 57.84 130.492 58.275 130.456 58.802 130.42 C 59.851 130.349 61.301 130.281 62.89 130.232 C 64.47 130.184 65.901 130.116 66.941 130.046 C 67.459 130.011 67.87 129.977 68.154 129.943 C 68.262 129.931 68.341 129.92 68.4 129.909 C 68.447 129.878 68.517 129.845 68.557 129.83 C 68.623 129.807 68.721 129.784 68.809 129.769 C 68.971 129.741 69.207 129.715 69.477 129.695 C 70.009 129.656 70.748 129.632 71.549 129.632 C 72.421 129.632 73.12 129.609 73.608 129.569 C 73.829 129.55 73.983 129.531 74.093 129.509 C 74.095 129.507 74.097 129.504 74.099 129.502 C 74.146 129.459 74.231 129.406 74.278 129.384 C 74.348 129.352 74.456 129.321 74.546 129.302 C 74.709 129.269 74.951 129.239 75.232 129.218 C 75.784 129.175 76.583 129.152 77.551 129.152 C 78.504 129.152 79.265 129.129 79.794 129.089 C 80.042 129.07 80.216 129.049 80.338 129.025 C 80.384 128.982 80.461 128.931 80.505 128.91 C 80.573 128.877 80.68 128.843 80.766 128.824 C 80.921 128.79 81.149 128.76 81.411 128.738 C 81.924 128.696 82.665 128.672 83.553 128.672 C 84.425 128.672 85.125 128.649 85.613 128.608 C 85.833 128.59 85.988 128.571 86.097 128.548 C 86.143 128.504 86.223 128.452 86.267 128.43 C 86.335 128.397 86.443 128.363 86.529 128.344 C 86.683 128.31 86.912 128.28 87.173 128.258 C 87.686 128.215 88.427 128.191 89.316 128.191 C 90.188 128.191 90.887 128.168 91.375 128.128 C 91.595 128.109 91.749 128.09 91.859 128.068 C 91.905 128.024 91.985 127.971 92.03 127.949 C 92.098 127.916 92.205 127.883 92.291 127.864 C 92.445 127.83 92.674 127.8 92.936 127.778 C 93.448 127.735 94.189 127.711 95.078 127.711 C 95.862 127.711 96.564 127.688 97.076 127.65 C 97.328 127.631 97.515 127.61 97.646 127.588 C 97.655 127.586 97.663 127.585 97.67 127.583 C 97.671 127.583 97.672 127.582 97.672 127.582 C 97.712 127.553 97.78 127.519 97.813 127.507 C 97.859 127.489 97.928 127.471 97.982 127.46 C 98.077 127.441 98.217 127.421 98.376 127.403 C 98.689 127.367 99.142 127.33 99.69 127.295 C 100.783 127.223 102.292 127.155 103.947 127.106 C 105.594 127.058 107.086 126.991 108.169 126.921 C 108.709 126.886 109.138 126.852 109.435 126.819 C 109.551 126.806 109.637 126.794 109.7 126.783 C 109.747 126.753 109.817 126.72 109.857 126.706 C 109.922 126.683 110.02 126.661 110.107 126.646 C 110.269 126.618 110.505 126.593 110.774 126.574 C 111.306 126.535 112.045 126.511 112.845 126.511 C 113.717 126.511 114.417 126.488 114.904 126.447 C 115.124 126.429 115.279 126.41 115.388 126.388 C 115.434 126.343 115.514 126.291 115.559 126.269 C 115.627 126.236 115.734 126.202 115.82 126.183 C 115.975 126.149 116.203 126.119 116.465 126.097 C 116.978 126.055 117.719 126.031 118.607 126.031 C 119.479 126.031 120.179 126.008 120.667 125.967 C 120.887 125.949 121.042 125.93 121.151 125.907 C 121.197 125.863 121.277 125.811 121.321 125.789 C 121.389 125.756 121.497 125.722 121.583 125.703 C 121.737 125.669 121.966 125.639 122.227 125.617 C 122.74 125.574 123.481 125.55 124.37 125.55 C 125.242 125.55 125.941 125.527 126.429 125.487 C 126.65 125.468 126.804 125.449 126.914 125.427 C 126.917 125.424 126.919 125.422 126.921 125.42 C 126.967 125.376 127.052 125.324 127.099 125.302 C 127.169 125.271 127.277 125.239 127.367 125.221 C 127.53 125.187 127.772 125.158 128.053 125.136 C 128.605 125.094 129.404 125.07 130.372 125.07 C 131.325 125.07 132.086 125.047 132.615 125.007 C 132.865 124.988 133.04 124.967 133.161 124.943 C 133.181 124.919 133.2 124.899 133.217 124.886 C 133.275 124.841 133.374 124.791 133.439 124.767 C 133.547 124.727 133.709 124.689 133.867 124.665 C 134.169 124.619 134.597 124.59 135.054 124.59 C 135.477 124.59 135.829 124.566 136.088 124.526 C 136.16 124.515 136.212 124.506 136.252 124.496 C 136.334 124.378 136.44 124.279 136.525 124.235 C 136.664 124.164 136.899 124.11 137.084 124.11 C 137.22 124.11 137.517 123.939 137.799 123.656 C 138.15 123.305 138.667 122.909 138.908 122.909 C 138.829 122.909 139.018 122.725 139.371 122.348 C 139.771 121.919 140.393 121.469 140.705 121.469 C 140.724 121.469 140.925 121.324 141.191 121.029 C 141.539 120.662 142.115 120.268 142.433 120.268 C 142.462 120.268 142.558 120.202 142.692 119.995 C 142.946 119.67 143.471 119.308 143.814 119.308 C 143.87 119.308 144.04 119.186 144.235 118.908 C 144.532 118.528 145.093 118.107 145.436 118.107 C 145.484 118.107 145.759 117.904 146.094 117.546 C 146.489 117.122 147.083 116.667 147.368 116.667 C 147.332 116.667 147.494 116.5 147.78 116.139 C 148.133 115.692 148.776 115.279 149.147 115.228 C 149.245 115.262 149.518 115.059 149.804 114.772 C 150.159 114.417 150.698 114.026 150.956 114.026 C 150.9 114.026 150.942 113.976 151.095 113.753 C 151.342 113.433 151.843 113.065 152.165 113.065 C 152.203 113.065 152.436 112.905 152.729 112.611 C 152.952 112.389 153.251 112.156 153.513 112.011 C 152.831 112.003 151.898 111.996 150.738 111.988 C 148.087 111.972 144.253 111.957 139.521 111.945 C 130.056 111.92 117.002 111.905 102.641 111.905 C 76.61 111.905 63.553 111.904 57.003 111.844 C 53.725 111.814 52.06 111.768 51.218 111.699 C 50.778 111.664 50.487 111.609 50.33 111.541 C 50.203 111.486 50.046 111.344 49.992 111.241 C 49.926 111.116 49.92 110.959 49.92 110.924 C 49.92 110.787 49.947 110.57 50.032 110.421 C 50.119 110.266 50.343 110.101 50.528 110.044 C 50.806 109.959 51.273 109.944 51.981 109.944 C 52.404 109.944 52.756 109.92 53.015 109.881 C 53.088 109.869 53.14 109.86 53.179 109.85 C 53.19 109.836 53.201 109.824 53.21 109.814 C 53.257 109.77 53.342 109.718 53.389 109.696 C 53.459 109.664 53.567 109.633 53.658 109.614 C 53.821 109.581 54.062 109.551 54.343 109.53 C 54.895 109.487 55.695 109.464 56.663 109.464 C 57.513 109.464 58.277 109.441 58.833 109.403 C 59.108 109.384 59.315 109.364 59.459 109.341 C 59.476 109.338 59.491 109.335 59.503 109.333 C 59.505 109.332 59.506 109.33 59.508 109.329 C 59.548 109.302 59.615 109.271 59.648 109.259 C 59.693 109.243 59.762 109.225 59.817 109.215 C 59.914 109.196 60.057 109.177 60.223 109.159 C 60.547 109.124 61.017 109.087 61.587 109.052 C 62.723 108.981 64.291 108.913 66.012 108.864 C 67.725 108.816 69.277 108.748 70.404 108.678 C 70.966 108.643 71.413 108.608 71.722 108.574 C 71.848 108.561 71.94 108.549 72.008 108.537 C 72.008 108.537 72.009 108.537 72.01 108.536 C 72.056 108.506 72.133 108.472 72.177 108.457 C 72.243 108.436 72.344 108.414 72.437 108.399 C 72.61 108.372 72.861 108.347 73.152 108.327 C 73.727 108.288 74.524 108.264 75.39 108.264 C 76.343 108.264 77.104 108.241 77.632 108.2 C 77.882 108.181 78.056 108.16 78.178 108.136 C 78.179 108.135 78.18 108.134 78.181 108.133 C 78.228 108.089 78.313 108.036 78.36 108.015 C 78.429 107.983 78.537 107.952 78.628 107.934 C 78.791 107.9 79.032 107.871 79.313 107.849 C 79.865 107.807 80.665 107.783 81.633 107.783 C 82.586 107.783 83.347 107.76 83.875 107.72 C 84.124 107.701 84.299 107.68 84.421 107.656 C 84.422 107.655 84.422 107.654 84.423 107.653 C 84.469 107.61 84.555 107.557 84.602 107.535 C 84.671 107.503 84.78 107.472 84.87 107.453 C 85.033 107.42 85.275 107.39 85.556 107.369 C 86.108 107.326 86.907 107.303 87.875 107.303 C 88.828 107.303 89.589 107.28 90.118 107.24 C 90.366 107.221 90.541 107.2 90.662 107.176 C 90.708 107.132 90.79 107.08 90.836 107.058 C 90.905 107.026 91.012 106.993 91.1 106.975 C 91.258 106.941 91.493 106.911 91.763 106.889 C 92.293 106.847 93.06 106.823 93.983 106.823 C 94.797 106.823 95.541 106.799 96.097 106.761 C 96.644 106.724 96.741 106.743 96.676 106.848 C 96.857 106.557 99.968 106.318 103.345 106.22 C 105.025 106.172 106.548 106.104 107.653 106.035 C 108.204 106 108.643 105.965 108.946 105.932 C 109.068 105.918 109.157 105.907 109.223 105.895 C 109.223 105.895 109.224 105.895 109.225 105.894 C 109.271 105.864 109.348 105.83 109.392 105.815 C 109.458 105.794 109.559 105.772 109.652 105.757 C 109.825 105.73 110.076 105.705 110.367 105.685 C 110.942 105.646 111.739 105.622 112.605 105.622 C 113.558 105.622 114.319 105.599 114.848 105.559 C 115.096 105.54 115.27 105.519 115.392 105.495 C 115.438 105.452 115.516 105.401 115.559 105.38 C 115.627 105.347 115.734 105.314 115.821 105.295 C 115.975 105.261 116.203 105.231 116.465 105.209 C 116.978 105.166 117.719 105.142 118.607 105.142 C 119.479 105.142 120.179 105.119 120.667 105.079 C 120.887 105.06 121.042 105.041 121.152 105.019 C 121.154 105.017 121.156 105.014 121.158 105.012 C 121.205 104.969 121.29 104.916 121.337 104.894 C 121.406 104.862 121.515 104.831 121.605 104.812 C 121.768 104.779 122.01 104.749 122.291 104.728 C 122.843 104.685 123.642 104.662 124.61 104.662 C 125.563 104.662 126.324 104.639 126.853 104.599 C 127.102 104.58 127.276 104.559 127.398 104.535 C 127.399 104.534 127.4 104.533 127.4 104.532 C 127.447 104.488 127.532 104.436 127.579 104.414 C 127.649 104.382 127.757 104.351 127.848 104.332 C 128.011 104.299 128.252 104.269 128.533 104.248 C 129.085 104.205 129.885 104.182 130.852 104.182 C 131.805 104.182 132.566 104.159 133.095 104.119 C 133.344 104.1 133.519 104.079 133.641 104.055 C 133.642 104.054 133.642 104.053 133.643 104.052 C 133.69 104.009 133.775 103.956 133.822 103.934 C 133.892 103.902 134 103.871 134.09 103.852 C 134.253 103.819 134.495 103.789 134.776 103.768 C 135.328 103.725 136.127 103.702 137.095 103.702 C 138.048 103.702 138.809 103.679 139.337 103.639 C 139.597 103.619 139.775 103.597 139.897 103.572 C 139.898 103.572 139.898 103.572 139.898 103.572 C 139.931 103.534 139.963 103.504 139.99 103.487 C 140.053 103.448 140.156 103.406 140.23 103.384 C 140.356 103.347 140.545 103.314 140.744 103.291 C 141.131 103.247 141.685 103.221 142.317 103.221 C 143.464 103.22 145.775 103.149 147.454 103.064 L 150.04 102.932 L 150.04 96.3 L 138.712 96.241 L 126.457 96.176 L 126.319 95.208 C 126.289 94.956 126.314 94.627 126.442 94.439 C 126.584 94.23 126.937 94.098 127.181 94.098 C 127.295 94.098 127.449 94.021 127.566 93.825 C 127.812 93.505 128.313 93.137 128.635 93.137 C 128.688 93.137 128.891 92.979 129.17 92.706 C 129.298 92.581 129.391 92.475 129.455 92.379 C 129.439 92.305 129.433 92.233 129.445 92.177 C 129.478 92.033 129.649 91.848 129.742 91.798 C 129.858 91.736 130.069 91.697 130.229 91.697 C 130.366 91.697 130.537 91.644 130.647 91.525 C 131.477 90.784 131.888 90.518 132.344 90.497 C 132.457 90.227 132.683 89.919 132.885 89.707 C 133.167 89.412 133.645 89.056 133.953 89.056 C 133.968 89.056 134.189 88.902 134.482 88.603 C 134.85 88.24 135.43 87.855 135.732 87.855 C 135.745 87.855 135.832 87.792 135.97 87.582 C 136.218 87.26 136.726 86.895 137.052 86.895 C 137.087 86.895 137.353 86.694 137.69 86.334 C 138.082 85.913 138.662 85.454 138.934 85.454 C 138.904 85.454 139.117 85.294 139.448 84.987 C 139.836 84.628 140.426 84.254 140.718 84.254 C 140.72 84.254 140.831 84.154 141.061 83.912 C 141.292 83.67 141.397 83.536 141.397 83.517 C 141.397 83.303 141.615 83.017 141.764 82.935 C 141.887 82.867 142.105 82.813 142.267 82.813 C 142.48 82.813 142.556 82.762 143.355 82.041 C 143.594 81.843 144.036 81.636 144.335 81.615 C 144.337 81.612 144.339 81.61 144.343 81.607 C 144.393 81.56 144.4 81.549 144.422 81.481 C 144.483 81.288 144.628 81.061 144.76 80.934 C 144.901 80.797 145.186 80.652 145.397 80.652 C 145.45 80.652 145.773 80.438 146.151 80.07 C 146.587 79.656 147.186 79.212 147.444 79.212 C 147.399 79.212 147.58 79.065 147.884 78.758 C 148.25 78.399 148.819 78.011 149.112 78.011 C 149.113 78.011 149.353 77.815 149.695 77.45 C 150.018 77.103 150.48 76.739 150.802 76.615 C 150.851 76.473 150.941 76.325 151.037 76.259 C 151.124 76.201 151.311 76.151 151.415 76.158 C 151.435 76.159 151.457 76.163 151.481 76.168 C 151.512 76.14 151.542 76.104 151.584 76.046 C 151.821 75.717 152.357 75.37 152.701 75.37 C 152.768 75.37 152.89 75.299 153.016 75.097 C 153.246 74.79 153.699 74.41 153.978 74.41 C 153.938 74.41 154.135 74.236 154.461 73.888 C 154.851 73.471 155.555 73.026 155.986 72.904 C 156.244 72.864 156.424 72.741 156.427 72.597 C 156.499 72.403 156.642 72.17 156.78 72.043 C 156.926 71.908 157.211 71.769 157.423 71.769 C 157.483 71.769 157.768 71.569 158.098 71.208 C 158.497 70.784 159.097 70.328 159.389 70.328 C 159.384 70.328 159.589 70.174 159.888 69.874 C 160.255 69.508 160.849 69.128 161.161 69.128 C 161.189 69.128 161.285 69.063 161.42 68.855 C 161.647 68.55 162.094 68.167 162.369 68.167 C 162.328 68.167 162.508 68.019 162.813 67.713 C 163.184 67.343 163.804 66.967 164.14 66.967 C 164.203 66.967 164.487 66.762 164.821 66.406 C 165.209 65.99 165.771 65.526 166.026 65.526 C 165.956 65.526 166.151 65.34 166.502 64.965 C 166.908 64.53 167.561 64.086 167.906 64.086 C 167.962 64.086 168.143 63.958 168.352 63.677 C 168.658 63.3 169.217 62.885 169.549 62.885 C 169.588 62.885 169.68 62.811 169.822 62.613 C 170.06 62.283 170.58 61.925 170.907 61.925 C 170.941 61.925 171.106 61.8 171.319 61.516 C 171.629 61.137 172.203 60.724 172.55 60.724 C 172.609 60.724 172.894 60.523 173.224 60.162 C 173.613 59.748 174.168 59.284 174.417 59.284 C 174.347 59.284 174.509 59.14 174.818 58.83 C 175.189 58.46 175.808 58.083 176.145 58.083 C 176.208 58.083 176.492 57.878 176.826 57.522 C 177.219 57.101 177.801 56.643 178.075 56.643 C 178.027 56.643 178.076 56.59 178.226 56.37 C 178.485 56.042 179.027 55.682 179.387 55.682 C 179.472 55.682 179.673 55.55 179.876 55.272 C 180.178 54.901 180.717 54.482 181.031 54.482 C 181.04 54.482 181.288 54.284 181.628 53.921 C 182.031 53.489 182.667 53.041 182.993 53.041 C 183.019 53.041 183.162 52.917 183.37 52.641 C 183.66 52.254 184.229 51.841 184.571 51.841 C 184.62 51.841 184.897 51.642 185.229 51.28 C 185.624 50.859 186.204 50.4 186.478 50.4 C 186.431 50.4 186.478 50.348 186.629 50.127 C 186.877 49.806 187.382 49.44 187.705 49.44 C 187.78 49.44 187.91 49.391 188.03 49.267 C 188.731 48.641 189.174 48.315 189.498 48.251 C 189.498 48.247 189.506 48.238 189.523 48.223 C 189.572 48.18 189.681 48.055 189.753 47.969 Z M 192.677 60.044 C 192.74 60.044 192.86 60.012 192.95 59.966 C 192.946 59.963 192.942 59.96 192.939 59.957 C 192.854 60.006 192.73 60.044 192.677 60.044 Z" fill-rule="evenodd" style="fill: rgb(37, 99, 235); filter: none;"/>
  <path id="path1" d="M 243.858 139.656 C 243.77 139.744 243.697 144.606 243.697 150.46 L 243.697 161.104 L 245.498 161.104 L 247.299 161.104 L 247.299 156.062 C 247.299 152.861 247.387 151.02 247.539 151.02 C 247.671 151.02 247.779 150.853 247.779 150.649 C 247.779 150.232 248.823 149.1 249.209 149.1 C 249.347 149.1 249.46 148.992 249.46 148.86 C 249.46 148.727 249.892 148.619 250.42 148.619 C 250.948 148.619 251.381 148.727 251.381 148.86 C 251.381 148.992 251.589 149.1 251.845 149.1 C 252.1 149.1 252.377 149.316 252.461 149.58 C 252.545 149.844 252.714 150.06 252.837 150.06 C 252.96 150.06 253.061 150.324 253.061 150.646 C 253.061 150.968 253.169 151.299 253.301 151.381 C 253.448 151.471 253.541 153.384 253.541 156.317 L 253.541 161.104 L 255.102 161.104 L 256.663 161.104 L 256.663 155.102 C 256.663 151.261 256.576 149.1 256.423 149.1 C 256.291 149.1 256.182 148.938 256.182 148.739 C 256.182 148.541 256.074 148.379 255.942 148.379 C 255.81 148.379 255.702 148.218 255.702 148.021 C 255.702 147.565 254.75 146.459 254.358 146.459 C 254.195 146.459 254.021 146.338 253.972 146.19 C 253.846 145.811 249.399 145.801 249.273 146.179 C 249.222 146.333 248.973 146.459 248.719 146.459 C 248.466 146.459 248.259 146.567 248.259 146.699 C 248.259 146.831 248.043 146.939 247.779 146.939 C 247.32 146.939 247.299 146.779 247.299 143.217 L 247.299 139.496 L 245.658 139.496 C 244.756 139.496 243.946 139.568 243.858 139.656 M 46.979 140.376 C 46.891 140.464 46.819 145.164 46.819 150.82 L 46.819 161.104 L 48.619 161.104 L 50.42 161.104 L 50.42 156.423 L 50.42 151.741 L 54.862 151.741 L 59.304 151.741 L 59.304 156.423 L 59.304 161.104 L 61.107 161.104 L 62.91 161.104 L 62.848 150.72 L 62.785 140.336 L 61.044 140.266 L 59.304 140.195 L 59.304 144.407 L 59.304 148.619 L 54.862 148.619 L 50.42 148.619 L 50.42 144.418 L 50.42 140.216 L 48.78 140.216 C 47.877 140.216 47.067 140.288 46.979 140.376 M 130.252 140.456 C 130.17 140.588 129.786 140.696 129.398 140.696 L 128.691 140.696 L 128.691 150.9 L 128.691 161.104 L 129.532 161.104 C 129.994 161.104 130.372 161.212 130.372 161.345 C 130.372 161.488 131.293 161.585 132.653 161.585 C 134.014 161.585 134.934 161.488 134.934 161.345 C 134.934 161.212 135.528 161.104 136.255 161.104 C 136.981 161.104 137.575 161.01 137.575 160.895 C 137.575 160.78 137.983 160.62 138.482 160.541 C 139.466 160.383 141.176 159.018 141.176 158.391 C 141.176 158.189 141.281 157.987 141.408 157.943 C 142.109 157.701 141.953 152.825 141.223 152.129 C 140.999 151.917 140.357 151.319 139.796 150.8 C 138.683 149.772 138.582 149.58 139.153 149.58 C 139.584 149.58 140.216 149.019 140.216 148.637 C 140.216 148.495 140.324 148.379 140.456 148.379 C 140.588 148.379 140.696 148.163 140.696 147.899 C 140.696 147.635 140.804 147.419 140.936 147.419 C 141.075 147.419 141.176 146.659 141.176 145.618 C 141.176 144.578 141.075 143.818 140.936 143.818 C 140.804 143.818 140.696 143.601 140.696 143.337 C 140.696 143.073 140.588 142.857 140.456 142.857 C 140.324 142.857 140.216 142.741 140.216 142.6 C 140.216 142.217 139.584 141.657 139.153 141.657 C 138.945 141.657 138.776 141.549 138.776 141.417 C 138.776 141.285 138.613 141.176 138.415 141.176 C 138.217 141.176 138.055 141.068 138.055 140.936 C 138.055 140.804 137.623 140.696 137.095 140.696 C 136.567 140.696 136.134 140.588 136.134 140.456 C 136.134 140.31 135.019 140.216 133.267 140.216 C 131.615 140.216 130.338 140.318 130.252 140.456 M 228.331 140.456 C 228.331 140.588 228.162 140.696 227.954 140.696 C 227.275 140.696 226.891 141.347 226.891 142.497 C 226.891 144 227.245 144.298 229.034 144.298 C 230.332 144.298 230.492 144.245 230.492 143.818 C 230.492 143.553 230.6 143.337 230.732 143.337 C 231.084 143.337 231.011 141.607 230.638 141.116 C 230.463 140.885 230.142 140.696 229.926 140.696 C 229.709 140.696 229.532 140.588 229.532 140.456 C 229.532 140.324 229.262 140.216 228.932 140.216 C 228.601 140.216 228.331 140.324 228.331 140.456 M 287.395 150.66 L 287.395 161.104 L 288.956 161.104 L 290.516 161.104 L 290.516 156.423 L 290.516 151.741 L 294.958 151.741 L 299.4 151.741 L 299.4 156.423 L 299.4 161.104 L 301.203 161.104 L 303.006 161.104 L 302.944 150.72 L 302.881 140.336 L 301.14 140.266 L 299.4 140.195 L 299.4 144.407 L 299.4 148.619 L 294.958 148.619 L 290.516 148.619 L 290.516 144.418 L 290.516 140.216 L 288.956 140.216 L 287.395 140.216 L 287.395 150.66 M 236.255 142.377 C 236.255 142.509 235.93 142.617 235.534 142.617 L 234.814 142.617 L 234.814 144.298 L 234.814 145.978 L 233.733 145.978 L 232.653 145.978 L 232.653 147.299 L 232.653 148.619 L 233.733 148.619 L 234.814 148.619 L 234.814 154.022 C 234.814 157.463 234.901 159.424 235.054 159.424 C 235.186 159.424 235.294 159.566 235.294 159.741 C 235.294 160.148 236.39 161.104 236.857 161.104 C 237.054 161.104 237.215 161.212 237.215 161.345 C 237.215 161.483 237.981 161.585 239.033 161.585 C 241.246 161.585 241.537 161.364 241.537 159.681 L 241.537 158.463 L 240.319 158.463 C 239.142 158.463 238.415 158.103 238.415 157.52 C 238.415 157.379 238.307 157.263 238.175 157.263 C 238.024 157.263 237.935 155.662 237.935 152.941 L 237.935 148.619 L 239.976 148.619 L 242.017 148.619 L 242.017 147.299 L 242.017 145.978 L 239.976 145.978 L 237.935 145.978 L 237.935 144.058 L 237.935 142.137 L 237.095 142.137 C 236.633 142.137 236.255 142.245 236.255 142.377 M 348.139 142.377 C 348.139 142.509 347.761 142.617 347.299 142.617 L 346.459 142.617 L 346.459 144.298 L 346.459 145.978 L 345.378 145.978 L 344.298 145.978 L 344.298 147.299 L 344.298 148.619 L 345.378 148.619 L 346.459 148.619 L 346.459 153.301 C 346.459 156.263 346.547 157.983 346.699 157.983 C 346.831 157.983 346.939 158.337 346.939 158.77 C 346.939 159.634 348.065 161.104 348.726 161.104 C 348.931 161.104 349.1 161.212 349.1 161.345 C 349.1 161.483 349.86 161.585 350.9 161.585 C 351.941 161.585 352.701 161.483 352.701 161.345 C 352.701 161.212 352.923 161.104 353.194 161.104 C 353.637 161.104 353.679 160.979 353.614 159.844 L 353.541 158.583 L 352.268 158.51 C 350.072 158.384 350.06 158.356 350.06 153.128 L 350.06 148.619 L 351.873 148.619 L 353.687 148.619 L 353.614 147.359 L 353.541 146.098 L 351.801 146.028 L 350.06 145.957 L 350.06 144.047 L 350.06 142.137 L 349.1 142.137 C 348.571 142.137 348.139 142.245 348.139 142.377 M 134.454 143.097 C 134.454 143.229 134.781 143.337 135.18 143.337 C 135.942 143.337 137.575 144.578 137.575 145.157 C 137.575 145.322 137.71 145.508 137.875 145.568 C 138.115 145.656 138.115 145.742 137.875 145.996 C 137.71 146.171 137.575 146.514 137.575 146.758 C 137.575 147.899 136.425 148.494 134.045 148.583 L 131.813 148.666 L 131.813 146.002 C 131.813 143.793 131.874 143.337 132.173 143.337 C 132.371 143.337 132.533 143.229 132.533 143.097 C 132.533 142.965 132.965 142.857 133.493 142.857 C 134.022 142.857 134.454 142.965 134.454 143.097 M 71.669 145.728 C 71.405 145.847 70.837 145.952 70.408 145.962 C 69.979 145.971 69.628 146.086 69.628 146.218 C 69.628 146.351 69.486 146.459 69.313 146.459 C 69.14 146.459 68.766 146.675 68.483 146.939 C 68.199 147.203 67.901 147.419 67.82 147.419 C 67.629 147.419 66.987 148.061 66.987 148.252 C 66.987 148.333 66.771 148.631 66.507 148.915 C 66.242 149.198 66.026 149.68 66.026 149.985 C 66.026 150.29 65.918 150.54 65.786 150.54 C 65.654 150.54 65.546 150.912 65.546 151.366 C 65.546 151.821 65.438 152.259 65.306 152.341 C 65.174 152.423 65.066 153.023 65.066 153.676 C 65.066 154.328 65.174 154.862 65.306 154.862 C 65.438 154.862 65.546 155.402 65.546 156.062 C 65.546 156.723 65.654 157.263 65.786 157.263 C 65.918 157.263 66.026 157.425 66.026 157.623 C 66.026 157.821 66.134 157.983 66.267 157.983 C 66.399 157.983 66.507 158.15 66.507 158.354 C 66.507 158.891 68.186 160.624 68.706 160.624 C 68.949 160.624 69.148 160.732 69.148 160.864 C 69.148 160.996 69.411 161.104 69.734 161.104 C 70.056 161.104 70.387 161.212 70.468 161.345 C 70.55 161.477 71.475 161.585 72.523 161.585 C 73.634 161.585 74.43 161.484 74.43 161.345 C 74.43 161.212 74.754 161.104 75.15 161.104 C 75.546 161.104 75.87 161.005 75.87 160.883 C 75.87 160.762 76.171 160.596 76.539 160.516 C 78.016 160.191 79.712 157.659 79.712 155.777 C 79.712 155.274 79.82 154.862 79.952 154.862 C 80.084 154.862 80.192 154.268 80.192 153.541 C 80.192 152.815 80.084 152.221 79.952 152.221 C 79.82 152.221 79.712 151.735 79.712 151.14 C 79.712 150.546 79.604 150.06 79.472 150.06 C 79.34 150.06 79.232 149.894 79.232 149.691 C 79.232 148.904 77.611 146.939 76.962 146.939 C 76.758 146.939 76.591 146.843 76.591 146.727 C 76.591 146.489 75.976 146.25 74.55 145.933 C 72.86 145.556 72.16 145.507 71.669 145.728 M 89.316 145.731 C 89.118 145.863 88.604 145.973 88.175 145.975 C 87.746 145.977 87.395 146.086 87.395 146.218 C 87.395 146.351 87.203 146.459 86.968 146.459 C 86.733 146.459 86.385 146.675 86.194 146.939 C 85.706 147.617 85.474 147.536 85.474 146.687 L 85.474 145.955 L 83.974 146.027 L 82.473 146.098 L 82.41 153.601 L 82.346 161.104 L 84.15 161.104 L 85.954 161.104 L 85.954 156.062 C 85.954 152.861 86.042 151.02 86.194 151.02 C 86.327 151.02 86.435 150.853 86.435 150.649 C 86.435 150.232 87.479 149.1 87.864 149.1 C 88.002 149.1 88.115 148.992 88.115 148.86 C 88.115 148.727 88.504 148.619 88.979 148.619 C 90.06 148.619 91.236 149.752 91.236 150.792 C 91.236 151.166 91.345 151.539 91.477 151.621 C 91.623 151.711 91.717 153.584 91.717 156.437 L 91.717 161.104 L 93.277 161.104 L 94.838 161.104 L 94.838 156.062 C 94.838 152.861 94.926 151.02 95.078 151.02 C 95.21 151.02 95.318 150.853 95.318 150.649 C 95.318 150.232 96.362 149.1 96.748 149.1 C 96.886 149.1 96.999 148.992 96.999 148.86 C 96.999 148.727 97.388 148.619 97.863 148.619 C 98.878 148.619 100.12 149.749 100.12 150.671 C 100.12 150.98 100.228 151.299 100.36 151.381 C 100.507 151.471 100.6 153.384 100.6 156.317 L 100.6 161.104 L 102.161 161.104 L 103.721 161.104 L 103.721 155.102 C 103.721 151.606 103.629 149.1 103.5 149.1 C 103.379 149.1 103.213 148.799 103.133 148.431 C 102.949 147.595 101.993 146.459 101.473 146.459 C 101.257 146.459 101.08 146.351 101.08 146.218 C 101.08 146.086 100.803 145.978 100.464 145.978 C 100.126 145.978 99.637 145.865 99.379 145.727 C 98.876 145.458 96.279 145.915 96.279 146.273 C 96.279 146.375 96.106 146.459 95.895 146.459 C 95.684 146.459 95.181 146.81 94.777 147.239 C 94.288 147.759 94.008 147.915 93.936 147.706 C 93.779 147.248 92.878 146.459 92.512 146.459 C 92.339 146.459 92.197 146.362 92.197 146.245 C 92.197 146.127 91.846 145.976 91.417 145.91 C 90.987 145.843 90.42 145.722 90.156 145.64 C 89.892 145.559 89.514 145.6 89.316 145.731 M 112.365 145.727 C 112.167 145.861 111.654 145.973 111.224 145.975 C 110.795 145.977 110.444 146.086 110.444 146.218 C 110.444 146.351 110.252 146.459 110.017 146.459 C 109.782 146.459 109.434 146.675 109.244 146.939 C 109.053 147.203 108.759 147.419 108.59 147.419 C 108.422 147.419 108.283 147.609 108.283 147.841 C 108.283 148.074 108.067 148.399 107.803 148.564 C 107.539 148.729 107.323 149.025 107.323 149.222 C 107.323 149.419 107.215 149.58 107.083 149.58 C 106.951 149.58 106.843 149.904 106.843 150.3 C 106.843 150.696 106.735 151.02 106.603 151.02 C 106.242 151.02 106.295 156.541 106.663 157.333 C 106.828 157.689 107.044 157.98 107.143 157.981 C 107.242 157.982 107.323 158.154 107.323 158.362 C 107.323 158.826 109.152 160.624 109.623 160.624 C 109.811 160.624 109.964 160.732 109.964 160.864 C 109.964 160.996 110.396 161.104 110.924 161.104 C 111.453 161.104 111.885 161.212 111.885 161.345 C 111.885 161.487 112.765 161.585 114.046 161.585 C 115.326 161.585 116.206 161.487 116.206 161.345 C 116.206 161.212 116.585 161.104 117.047 161.104 C 117.509 161.104 117.887 160.996 117.887 160.864 C 117.887 160.732 118.103 160.624 118.367 160.624 C 118.756 160.624 118.848 160.464 118.848 159.784 C 118.848 159.322 118.739 158.944 118.607 158.944 C 118.475 158.944 118.367 158.727 118.367 158.463 C 118.367 158.111 118.207 157.983 117.767 157.983 C 117.437 157.983 117.167 158.091 117.167 158.223 C 117.167 158.355 116.741 158.463 116.221 158.463 C 115.7 158.463 115.208 158.571 115.126 158.703 C 115.044 158.836 114.666 158.944 114.286 158.944 C 113.905 158.944 113.527 158.836 113.445 158.703 C 113.364 158.571 113.033 158.463 112.711 158.463 C 112.389 158.463 112.125 158.355 112.125 158.223 C 112.125 158.091 111.974 157.983 111.79 157.983 C 111.317 157.983 109.964 156.667 109.964 156.206 C 109.964 155.995 109.856 155.822 109.724 155.822 C 109.592 155.822 109.484 155.554 109.484 155.227 L 109.484 154.631 L 114.586 154.567 L 119.688 154.502 L 119.758 152.761 C 119.803 151.667 119.736 151.02 119.578 151.02 C 119.441 151.02 119.328 150.695 119.328 150.297 C 119.328 149.514 119.002 148.824 118.247 148.006 C 117.983 147.719 117.608 147.254 117.414 146.972 C 117.22 146.69 116.869 146.459 116.634 146.459 C 116.399 146.459 116.206 146.362 116.206 146.244 C 116.206 146.126 115.801 145.968 115.306 145.893 C 114.811 145.818 114.028 145.695 113.565 145.62 C 113.103 145.545 112.563 145.593 112.365 145.727 M 179.232 145.792 C 178.703 145.921 178.084 146.123 177.854 146.242 C 177.625 146.361 177.325 146.459 177.188 146.459 C 176.411 146.459 174.07 149.551 174.07 150.577 C 174.07 150.821 173.962 151.02 173.83 151.02 C 173.683 151.02 173.589 152.141 173.589 153.902 C 173.589 155.662 173.683 156.783 173.83 156.783 C 173.962 156.783 174.07 157.053 174.07 157.383 C 174.07 157.713 174.157 157.983 174.264 157.983 C 174.37 157.983 174.643 158.404 174.87 158.919 C 175.275 159.836 176.393 160.624 177.287 160.624 C 177.498 160.624 177.671 160.732 177.671 160.864 C 177.671 160.996 177.941 161.104 178.271 161.104 C 178.601 161.104 178.872 161.212 178.872 161.345 C 178.872 161.489 179.832 161.585 181.273 161.585 C 182.713 161.585 183.673 161.489 183.673 161.345 C 183.673 161.212 184.059 161.104 184.531 161.104 C 185.622 161.104 186.074 160.647 186.074 159.544 C 186.074 158.302 184.802 157.369 184.274 158.223 C 184.192 158.355 183.754 158.463 183.299 158.463 C 182.845 158.463 182.473 158.571 182.473 158.703 C 182.473 158.836 182.041 158.944 181.513 158.944 C 180.984 158.944 180.552 158.836 180.552 158.703 C 180.552 158.571 180.282 158.463 179.952 158.463 C 179.622 158.463 179.352 158.355 179.352 158.223 C 179.352 158.091 179.152 157.983 178.909 157.983 C 178.265 157.983 176.711 155.744 176.711 154.817 C 176.711 154.71 178.994 154.622 181.784 154.622 L 186.858 154.622 L 186.747 152.161 C 186.626 149.457 186.474 149.059 184.991 147.555 C 183.295 145.835 181.418 145.261 179.232 145.792 M 195.558 145.738 C 195.477 145.87 195.092 145.978 194.704 145.978 C 194.315 145.978 193.998 146.086 193.998 146.218 C 193.998 146.351 193.808 146.459 193.575 146.459 C 193.343 146.459 192.996 146.702 192.805 146.999 L 192.457 147.539 L 192.326 146.819 C 192.198 146.119 192.151 146.096 190.695 146.027 L 189.196 145.955 L 189.196 146.927 C 189.196 147.462 189.304 147.899 189.436 147.899 C 189.59 147.899 189.676 150.26 189.676 154.502 L 189.676 161.104 L 191.116 161.104 L 192.557 161.104 L 192.557 156.663 C 192.557 153.862 192.646 152.221 192.797 152.221 C 192.929 152.221 193.037 151.951 193.037 151.621 C 193.037 151.291 193.145 151.02 193.277 151.02 C 193.409 151.02 193.517 150.851 193.517 150.643 C 193.517 150.436 193.672 150.111 193.86 149.923 C 194.049 149.734 194.373 149.58 194.581 149.58 C 194.788 149.58 194.958 149.472 194.958 149.34 C 194.958 149.208 195.444 149.1 196.038 149.1 L 197.119 149.1 L 197.119 147.447 C 197.119 145.936 197.073 145.782 196.579 145.65 C 195.841 145.452 195.729 145.461 195.558 145.738 M 270.588 145.728 C 270.39 145.862 269.769 145.973 269.208 145.975 C 268.646 145.977 268.187 146.086 268.187 146.218 C 268.187 146.351 267.963 146.459 267.69 146.459 C 267.416 146.459 267.038 146.613 266.85 146.802 C 266.46 147.191 266.382 148.379 266.747 148.379 C 266.879 148.379 266.987 148.649 266.987 148.98 C 266.987 149.46 267.107 149.58 267.587 149.58 C 267.917 149.58 268.187 149.472 268.187 149.34 C 268.187 149.208 268.394 149.1 268.647 149.1 C 268.901 149.1 269.146 148.984 269.194 148.842 C 269.324 148.452 272.419 148.495 272.814 148.893 C 273.214 149.297 273.95 150.752 273.95 151.141 C 273.95 151.334 273.179 151.479 271.609 151.582 C 270.322 151.666 269.233 151.845 269.189 151.978 C 269.144 152.112 268.901 152.221 268.647 152.221 C 268.394 152.221 268.187 152.329 268.187 152.461 C 268.187 152.593 268.051 152.701 267.885 152.701 C 267.543 152.701 266.026 154.275 266.026 154.63 C 266.026 154.758 265.918 154.862 265.786 154.862 C 265.645 154.862 265.546 155.702 265.546 156.903 C 265.546 158.103 265.645 158.944 265.786 158.944 C 265.918 158.944 266.026 159.136 266.026 159.371 C 266.026 159.606 266.256 159.957 266.536 160.151 C 266.816 160.345 267.187 160.639 267.359 160.804 C 267.532 160.969 267.897 161.104 268.17 161.104 C 268.444 161.104 268.667 161.212 268.667 161.345 C 268.667 161.48 269.348 161.585 270.228 161.585 C 271.108 161.585 271.789 161.48 271.789 161.345 C 271.789 161.212 272.104 161.104 272.489 161.104 C 272.874 161.104 273.225 161.011 273.269 160.896 C 273.432 160.473 274.43 160.329 274.43 160.728 C 274.43 161.031 274.733 161.104 275.99 161.104 L 277.551 161.104 L 277.551 156.062 C 277.551 152.861 277.463 151.02 277.311 151.02 C 277.179 151.02 277.071 150.587 277.071 150.057 C 277.071 149.158 276.803 148.426 276.23 147.758 C 276.098 147.604 275.831 147.248 275.637 146.968 C 275.443 146.688 275.092 146.459 274.857 146.459 C 274.622 146.459 274.43 146.365 274.43 146.25 C 274.43 146.135 273.971 145.974 273.409 145.891 C 272.848 145.809 272.065 145.684 271.669 145.613 C 271.273 145.542 270.786 145.594 270.588 145.728 M 311.645 145.738 C 311.447 145.866 310.986 145.973 310.621 145.975 C 309.884 145.979 309.091 146.361 308.498 146.999 C 308.283 147.23 307.931 147.419 307.715 147.419 C 307.499 147.419 307.323 147.609 307.323 147.841 C 307.323 148.074 307.125 148.388 306.883 148.539 C 305.701 149.277 305.19 155.712 306.134 157.983 C 306.569 159.03 308.167 160.624 308.783 160.624 C 309.036 160.624 309.244 160.732 309.244 160.864 C 309.244 160.996 309.622 161.104 310.084 161.104 C 310.546 161.104 310.924 161.212 310.924 161.345 C 310.924 161.487 311.805 161.585 313.085 161.585 C 314.366 161.585 315.246 161.487 315.246 161.345 C 315.246 161.212 315.678 161.104 316.206 161.104 C 316.735 161.104 317.167 160.996 317.167 160.864 C 317.167 160.732 317.329 160.624 317.527 160.624 C 317.916 160.624 317.987 159.984 317.737 158.733 C 317.59 158 316.206 157.539 316.206 158.223 C 316.206 158.355 315.72 158.463 315.126 158.463 C 314.532 158.463 314.046 158.571 314.046 158.703 C 314.046 158.836 313.721 158.944 313.325 158.944 C 312.929 158.944 312.605 158.836 312.605 158.703 C 312.605 158.571 312.406 158.463 312.162 158.463 C 310.796 158.463 309.078 156.974 308.858 155.599 L 308.702 154.622 L 313.775 154.622 L 318.848 154.622 L 318.848 152.821 C 318.848 151.781 318.746 151.02 318.607 151.02 C 318.475 151.02 318.367 150.582 318.367 150.046 C 318.367 149.457 318.272 149.13 318.127 149.22 C 317.995 149.301 317.887 149.154 317.887 148.893 C 317.887 148.32 316.158 146.459 315.625 146.459 C 315.417 146.459 315.246 146.351 315.246 146.218 C 315.246 146.086 314.874 145.978 314.42 145.978 C 313.966 145.978 313.527 145.87 313.445 145.738 C 313.257 145.433 312.117 145.433 311.645 145.738 M 325.45 145.73 C 325.186 145.848 324.511 145.952 323.95 145.962 C 323.388 145.971 322.929 146.086 322.929 146.218 C 322.929 146.351 322.713 146.459 322.449 146.459 C 322.185 146.459 321.969 146.567 321.969 146.699 C 321.969 146.831 321.797 146.939 321.588 146.939 C 321.126 146.939 321.337 148.742 321.86 149.266 C 322.231 149.636 322.929 149.684 322.929 149.34 C 322.929 149.208 323.136 149.1 323.389 149.1 C 323.642 149.1 323.886 149.002 323.93 148.884 C 324.011 148.663 325.3 148.526 326.725 148.586 C 327.187 148.605 327.457 148.72 327.371 148.86 C 327.289 148.992 327.445 149.1 327.717 149.1 C 328.051 149.1 328.211 149.255 328.211 149.58 C 328.211 149.844 328.319 150.06 328.451 150.06 C 328.583 150.06 328.691 150.368 328.691 150.744 L 328.691 151.428 L 326.351 151.582 C 325.064 151.666 323.975 151.845 323.93 151.978 C 323.886 152.112 323.642 152.221 323.389 152.221 C 323.136 152.221 322.929 152.329 322.929 152.461 C 322.929 152.593 322.756 152.701 322.545 152.701 C 321.976 152.701 320.768 154.105 320.768 154.767 C 320.768 155.083 320.66 155.342 320.528 155.342 C 320.393 155.342 320.288 156.022 320.288 156.903 C 320.288 157.783 320.393 158.463 320.528 158.463 C 320.66 158.463 320.768 158.771 320.768 159.146 C 320.768 159.887 321.406 160.624 322.048 160.624 C 322.268 160.624 322.449 160.732 322.449 160.864 C 322.449 160.996 322.665 161.104 322.929 161.104 C 323.193 161.104 323.409 161.212 323.409 161.345 C 323.409 161.48 324.09 161.585 324.97 161.585 C 325.85 161.585 326.531 161.48 326.531 161.345 C 326.531 161.212 326.792 161.104 327.111 161.104 C 327.43 161.104 327.727 161.013 327.771 160.901 C 327.933 160.492 329.172 160.349 329.172 160.74 C 329.172 161.029 329.496 161.104 330.732 161.104 L 332.293 161.104 L 332.293 155.582 C 332.293 152.061 332.206 150.06 332.053 150.06 C 331.921 150.06 331.813 149.733 331.813 149.333 C 331.813 148.612 330.019 146.459 329.418 146.459 C 329.283 146.459 329.172 146.361 329.172 146.243 C 329.172 146.124 328.712 145.971 328.151 145.904 C 327.59 145.836 326.861 145.721 326.531 145.648 C 326.2 145.575 325.714 145.612 325.45 145.73 M 341.777 145.738 C 341.695 145.87 341.311 145.978 340.922 145.978 C 340.534 145.978 340.216 146.086 340.216 146.218 C 340.216 146.351 340.071 146.459 339.893 146.459 C 339.716 146.459 339.364 146.687 339.113 146.965 L 338.655 147.472 L 338.534 146.785 C 338.417 146.126 338.353 146.096 336.913 146.027 L 335.414 145.955 L 335.414 146.927 C 335.414 147.462 335.522 147.899 335.654 147.899 C 335.809 147.899 335.894 150.26 335.894 154.502 L 335.894 161.104 L 337.335 161.104 L 338.776 161.104 L 338.776 156.663 C 338.776 153.862 338.864 152.221 339.016 152.221 C 339.148 152.221 339.256 151.951 339.256 151.621 C 339.256 151.291 339.364 151.02 339.496 151.02 C 339.628 151.02 339.736 150.851 339.736 150.643 C 339.736 150.158 340.314 149.58 340.799 149.58 C 341.007 149.58 341.176 149.472 341.176 149.34 C 341.176 149.208 341.663 149.1 342.257 149.1 L 343.337 149.1 L 343.337 147.447 C 343.337 145.936 343.291 145.782 342.797 145.65 C 342.059 145.452 341.948 145.461 341.777 145.738 M 144.781 151.681 C 144.782 154.817 144.85 157.787 144.931 158.28 C 145.125 159.453 146.714 161.104 147.649 161.104 C 147.919 161.104 148.139 161.212 148.139 161.345 C 148.139 161.48 148.82 161.585 149.7 161.585 C 150.58 161.585 151.261 161.48 151.261 161.345 C 151.261 161.212 151.585 161.104 151.981 161.104 C 152.377 161.104 152.701 160.996 152.701 160.864 C 152.701 160.732 152.921 160.624 153.189 160.624 C 153.457 160.624 153.739 160.462 153.815 160.264 C 154.033 159.696 154.382 159.844 154.382 160.504 C 154.382 161.083 154.438 161.104 155.942 161.104 L 157.503 161.104 L 157.503 160.264 C 157.503 159.802 157.395 159.424 157.263 159.424 C 157.109 159.424 157.023 157.019 157.023 152.69 L 157.023 145.955 L 155.522 146.027 L 154.022 146.098 L 153.902 151.556 L 153.782 157.014 L 153.182 157.438 C 152.094 158.209 151.456 158.463 150.616 158.463 C 150.159 158.463 149.645 158.328 149.472 158.163 C 149.3 157.998 148.929 157.704 148.649 157.51 C 148.336 157.294 148.139 156.899 148.139 156.49 C 148.139 156.123 148.031 155.822 147.899 155.822 C 147.747 155.822 147.659 154.022 147.659 150.9 L 147.659 145.978 L 146.218 145.978 L 144.778 145.978 L 144.781 151.681 M 159.013 146.384 C 158.926 146.611 158.982 146.832 159.14 146.884 C 159.296 146.936 159.424 147.213 159.425 147.499 C 159.426 147.785 159.588 148.329 159.785 148.707 C 159.983 149.085 160.144 149.541 160.144 149.72 C 160.144 149.899 160.36 150.43 160.624 150.9 C 160.888 151.371 161.104 151.968 161.104 152.228 C 161.104 152.488 161.212 152.701 161.345 152.701 C 161.477 152.701 161.585 152.917 161.585 153.181 C 161.585 153.445 161.693 153.661 161.825 153.661 C 161.957 153.661 162.065 153.932 162.065 154.262 C 162.065 154.592 162.163 154.862 162.284 154.862 C 162.404 154.862 162.576 155.294 162.665 155.821 C 162.754 156.349 162.926 156.841 163.046 156.916 C 163.167 156.99 163.265 157.261 163.265 157.517 C 163.265 157.773 163.373 157.983 163.505 157.983 C 163.637 157.983 163.745 158.307 163.745 158.703 C 163.745 159.1 163.854 159.424 163.986 159.424 C 164.118 159.424 164.226 159.802 164.226 160.264 C 164.226 160.726 164.118 161.104 163.986 161.104 C 163.854 161.104 163.745 161.271 163.745 161.475 C 163.745 161.68 163.502 162.107 163.205 162.424 C 162.908 162.742 162.535 163.142 162.376 163.314 C 161.886 163.843 161.499 164.105 160.542 164.555 C 159.773 164.917 159.646 165.076 159.781 165.508 C 159.87 165.793 160.005 166.295 160.082 166.622 C 160.315 167.618 162.065 168.469 162.065 167.587 C 162.065 167.455 162.227 167.347 162.425 167.347 C 162.623 167.347 162.785 167.239 162.785 167.107 C 162.785 166.975 162.998 166.867 163.259 166.867 C 163.846 166.867 165.906 164.847 165.906 164.272 C 165.906 164.041 166.122 163.696 166.387 163.505 C 166.651 163.315 166.867 163.021 166.867 162.852 C 166.867 162.683 166.975 162.545 167.107 162.545 C 167.239 162.545 167.347 162.329 167.347 162.065 C 167.347 161.801 167.455 161.585 167.587 161.585 C 167.719 161.585 167.827 161.375 167.827 161.119 C 167.827 160.862 167.926 160.592 168.046 160.517 C 168.167 160.443 168.338 159.95 168.428 159.423 C 168.517 158.895 168.688 158.463 168.809 158.463 C 168.929 158.463 169.028 158.193 169.028 157.863 C 169.028 157.533 169.136 157.263 169.268 157.263 C 169.4 157.263 169.508 157.047 169.508 156.783 C 169.508 156.519 169.616 156.303 169.748 156.303 C 169.88 156.303 169.988 155.978 169.988 155.582 C 169.988 155.186 170.096 154.862 170.228 154.862 C 170.36 154.862 170.468 154.592 170.468 154.262 C 170.468 153.932 170.576 153.661 170.708 153.661 C 170.84 153.661 170.948 153.452 170.948 153.195 C 170.948 152.939 171.053 152.665 171.182 152.585 C 171.31 152.506 171.486 151.905 171.573 151.251 C 171.659 150.596 171.825 150.06 171.94 150.06 C 172.055 150.06 172.149 149.844 172.149 149.58 C 172.149 149.316 172.257 149.1 172.389 149.1 C 172.521 149.1 172.629 148.83 172.629 148.499 C 172.629 148.169 172.737 147.899 172.869 147.899 C 173.001 147.899 173.109 147.462 173.109 146.928 L 173.109 145.957 L 171.369 146.028 C 169.717 146.095 169.624 146.129 169.544 146.699 C 169.497 147.029 169.383 147.353 169.291 147.419 C 169.111 147.547 168.595 149.423 168.383 150.72 C 168.312 151.149 168.159 151.501 168.041 151.501 C 167.923 151.501 167.827 151.771 167.827 152.101 C 167.827 152.431 167.719 152.701 167.587 152.701 C 167.455 152.701 167.347 153.025 167.347 153.421 C 167.347 153.818 167.239 154.142 167.107 154.142 C 166.975 154.142 166.867 154.365 166.867 154.639 C 166.867 155.098 166.363 155.822 166.044 155.822 C 165.968 155.822 165.906 155.639 165.906 155.414 C 165.906 154.765 165.099 152.221 164.893 152.221 C 164.79 152.221 164.706 151.951 164.706 151.621 C 164.706 151.291 164.598 151.02 164.466 151.02 C 164.334 151.02 164.226 150.696 164.226 150.3 C 164.226 149.904 164.118 149.58 163.986 149.58 C 163.854 149.58 163.745 149.364 163.745 149.1 C 163.745 148.836 163.637 148.619 163.505 148.619 C 163.373 148.619 163.265 148.349 163.265 148.019 C 163.265 147.689 163.157 147.419 163.025 147.419 C 162.893 147.419 162.785 147.095 162.785 146.699 L 162.785 145.978 L 160.977 145.978 C 159.501 145.978 159.14 146.053 159.013 146.384 M 203.842 146.928 C 203.842 147.462 203.942 147.899 204.064 147.899 C 204.187 147.899 204.362 148.495 204.453 149.223 C 204.544 149.951 204.713 150.606 204.83 150.678 C 204.947 150.75 205.042 151.126 205.042 151.515 C 205.042 151.903 205.15 152.221 205.282 152.221 C 205.414 152.221 205.522 152.545 205.522 152.941 C 205.522 153.337 205.63 153.661 205.762 153.661 C 205.894 153.661 206.002 153.932 206.002 154.262 C 206.002 154.592 206.11 154.862 206.242 154.862 C 206.375 154.862 206.483 155.294 206.483 155.822 C 206.483 156.351 206.591 156.783 206.723 156.783 C 206.855 156.783 206.963 157.053 206.963 157.383 C 206.963 157.713 207.056 157.983 207.169 157.983 C 207.283 157.983 207.472 158.658 207.59 159.484 L 207.803 160.984 L 209.484 161.05 C 211.264 161.12 211.765 160.753 211.765 159.376 C 211.765 159.138 211.873 158.944 212.005 158.944 C 212.137 158.944 212.245 158.619 212.245 158.223 C 212.245 157.827 212.353 157.503 212.485 157.503 C 212.617 157.503 212.725 157.239 212.725 156.917 C 212.725 156.595 212.823 156.27 212.943 156.196 C 213.062 156.122 213.235 155.522 213.325 154.862 C 213.416 154.202 213.588 153.661 213.708 153.661 C 213.828 153.661 213.926 153.229 213.926 152.701 C 213.926 152.173 213.987 151.741 214.063 151.741 C 214.414 151.741 214.886 152.488 214.886 153.044 C 214.886 153.384 214.994 153.661 215.126 153.661 C 215.258 153.661 215.366 153.932 215.366 154.262 C 215.366 154.592 215.474 154.862 215.606 154.862 C 215.738 154.862 215.846 155.186 215.846 155.582 C 215.846 155.978 215.954 156.303 216.086 156.303 C 216.218 156.303 216.327 156.623 216.327 157.014 C 216.327 157.739 216.854 159.587 217.34 160.564 C 217.677 161.243 220.648 161.405 220.648 160.744 C 220.648 160.546 220.756 160.384 220.888 160.384 C 221.02 160.384 221.128 160.06 221.128 159.664 C 221.128 159.268 221.236 158.944 221.369 158.944 C 221.501 158.944 221.609 158.619 221.609 158.223 C 221.609 157.827 221.709 157.503 221.831 157.503 C 221.954 157.503 222.129 156.909 222.219 156.182 C 222.31 155.456 222.48 154.862 222.597 154.862 C 222.714 154.862 222.809 154.592 222.809 154.262 C 222.809 153.932 222.917 153.661 223.049 153.661 C 223.181 153.661 223.289 153.337 223.289 152.941 C 223.289 152.545 223.397 152.221 223.529 152.221 C 223.661 152.221 223.77 151.957 223.77 151.635 C 223.77 151.312 223.878 150.982 224.01 150.9 C 224.142 150.819 224.25 150.495 224.25 150.18 C 224.25 149.866 224.358 149.541 224.49 149.46 C 224.622 149.378 224.73 149.069 224.73 148.773 C 224.73 148.477 224.846 148.119 224.987 147.978 C 225.82 147.145 225.134 146.101 223.704 146.026 C 222.06 145.941 221.609 146.263 221.609 147.522 C 221.609 147.993 221.501 148.379 221.369 148.379 C 221.236 148.379 221.128 148.649 221.128 148.98 C 221.128 149.31 221.02 149.58 220.888 149.58 C 220.756 149.58 220.648 150.012 220.648 150.54 C 220.648 151.068 220.54 151.501 220.408 151.501 C 220.276 151.501 220.168 151.764 220.168 152.087 C 220.168 152.409 220.071 152.733 219.952 152.806 C 219.834 152.879 219.661 153.696 219.568 154.621 C 219.41 156.198 218.968 157.004 218.968 155.716 C 218.968 155.394 218.86 155.064 218.727 154.982 C 218.595 154.9 218.487 154.462 218.487 154.007 C 218.487 153.553 218.379 153.181 218.247 153.181 C 218.115 153.181 218.007 152.918 218.007 152.595 C 218.007 152.273 217.899 151.942 217.767 151.861 C 217.635 151.779 217.527 151.449 217.527 151.126 C 217.527 150.804 217.419 150.54 217.287 150.54 C 217.155 150.54 217.047 150.216 217.047 149.82 C 217.047 149.424 216.958 149.1 216.849 149.1 C 216.74 149.1 216.551 148.424 216.429 147.599 L 216.206 146.098 L 214.821 146.026 C 213.261 145.945 212.725 146.266 212.725 147.282 C 212.725 147.621 212.617 147.899 212.485 147.899 C 212.353 147.899 212.245 148.163 212.245 148.485 C 212.245 148.808 212.137 149.138 212.005 149.22 C 211.873 149.301 211.765 149.74 211.765 150.194 C 211.765 150.649 211.657 151.02 211.525 151.02 C 211.393 151.02 211.285 151.291 211.285 151.621 C 211.285 151.951 211.189 152.221 211.072 152.221 C 210.955 152.221 210.785 152.815 210.695 153.541 C 210.604 154.268 210.429 154.862 210.307 154.862 C 210.184 154.862 210.084 155.246 210.084 155.716 C 210.084 156.225 209.987 156.511 209.844 156.423 C 209.712 156.341 209.604 155.902 209.604 155.448 C 209.604 154.994 209.496 154.622 209.364 154.622 C 209.232 154.622 209.124 154.19 209.124 153.661 C 209.124 153.133 209.016 152.701 208.884 152.701 C 208.752 152.701 208.643 152.323 208.643 151.861 C 208.643 151.399 208.535 151.02 208.403 151.02 C 208.271 151.02 208.163 150.57 208.163 150.02 C 208.163 149.47 208.082 149.102 207.983 149.203 C 207.884 149.303 207.694 148.646 207.561 147.742 L 207.319 146.098 L 205.58 146.028 L 203.842 145.957 L 203.842 146.928 M 227.371 153.541 L 227.371 161.104 L 228.932 161.104 L 230.492 161.104 L 230.492 153.541 L 230.492 145.978 L 228.932 145.978 L 227.371 145.978 L 227.371 153.541 M 114.967 148.897 C 115.012 149.013 115.174 149.246 115.328 149.413 C 117.109 151.364 116.691 151.743 112.785 151.722 C 110.903 151.711 109.499 151.648 109.664 151.582 C 109.829 151.515 109.964 151.254 109.964 151 C 109.964 150.747 110.072 150.54 110.204 150.54 C 110.336 150.54 110.444 150.37 110.444 150.163 C 110.444 149.732 111.005 149.1 111.387 149.1 C 111.529 149.1 111.645 148.999 111.645 148.876 C 111.645 148.386 114.778 148.405 114.967 148.897 M 182.636 149.487 C 183.189 150.039 183.433 150.508 183.433 151.012 L 183.433 151.741 L 180.312 151.741 C 177.329 151.741 177.191 151.719 177.191 151.25 C 177.191 150.759 177.268 150.639 178.407 149.357 C 179.487 148.142 181.348 148.198 182.636 149.487 M 314.45 149.242 C 314.75 149.542 315.065 150.227 315.151 150.764 L 315.307 151.741 L 312.069 151.741 L 308.83 151.741 L 308.945 151.14 C 309.008 150.81 309.155 150.54 309.272 150.54 C 309.388 150.54 309.484 150.37 309.484 150.163 C 309.484 149.678 310.062 149.1 310.547 149.1 C 310.755 149.1 310.924 148.999 310.924 148.876 C 310.924 148.196 313.69 148.483 314.45 149.242 M 73.95 148.86 C 73.95 148.992 74.117 149.1 74.321 149.1 C 74.885 149.1 75.795 150.131 75.982 150.982 C 76.074 151.399 76.248 151.741 76.37 151.741 C 76.738 151.741 76.627 154.978 76.232 155.735 C 76.035 156.113 75.872 156.585 75.871 156.783 C 75.87 156.981 75.545 157.359 75.15 157.623 C 74.755 157.887 74.431 158.184 74.43 158.283 C 74.43 158.382 74.16 158.463 73.83 158.463 C 73.499 158.463 73.229 158.571 73.229 158.703 C 73.229 158.836 73.013 158.944 72.749 158.944 C 72.485 158.944 72.269 158.836 72.269 158.703 C 72.269 158.571 71.99 158.463 71.65 158.463 C 70.764 158.463 69.148 156.682 69.148 155.706 C 69.148 155.506 69.04 155.342 68.908 155.342 C 68.769 155.342 68.667 154.582 68.667 153.541 C 68.667 152.551 68.755 151.741 68.863 151.741 C 68.97 151.741 69.206 151.363 69.388 150.9 C 69.569 150.438 69.798 150.06 69.897 150.06 C 69.995 150.06 70.144 149.844 70.228 149.58 C 70.312 149.316 70.589 149.1 70.845 149.1 C 71.1 149.1 71.309 148.992 71.309 148.86 C 71.309 148.727 71.903 148.619 72.629 148.619 C 73.355 148.619 73.95 148.727 73.95 148.86 M 135.894 151.981 C 135.894 152.113 136.056 152.221 136.255 152.221 C 136.453 152.221 136.615 152.329 136.615 152.461 C 136.615 152.593 136.831 152.701 137.095 152.701 C 137.415 152.701 137.575 152.861 137.575 153.181 C 137.575 153.445 137.683 153.661 137.815 153.661 C 137.947 153.661 138.055 153.824 138.055 154.022 C 138.055 154.22 138.163 154.382 138.295 154.382 C 138.427 154.382 138.535 154.63 138.535 154.934 C 138.535 155.567 138.024 156.778 137.755 156.781 C 137.656 156.782 137.575 156.925 137.575 157.098 C 137.575 157.8 135.698 158.463 133.711 158.463 L 131.813 158.463 L 131.813 155.102 L 131.813 151.741 L 133.854 151.741 C 135.054 151.741 135.894 151.84 135.894 151.981 M 273.95 155.462 C 273.95 156.188 273.842 156.783 273.709 156.783 C 273.577 156.783 273.469 156.928 273.469 157.106 C 273.469 157.682 272.59 158.463 271.941 158.463 C 271.593 158.463 271.309 158.571 271.309 158.703 C 271.309 158.836 271.119 158.943 270.888 158.943 C 270.41 158.943 269.148 157.936 269.148 157.555 C 269.148 157.416 269.013 157.253 268.848 157.193 C 268.607 157.105 268.607 157.019 268.848 156.765 C 269.013 156.59 269.148 156.238 269.148 155.983 C 269.148 155.426 270.012 154.622 270.611 154.622 C 270.847 154.622 271.107 154.514 271.188 154.382 C 271.27 154.25 271.925 154.142 272.643 154.142 L 273.95 154.142 L 273.95 155.462 M 328.691 155.611 C 328.691 157.098 327.81 158.447 326.831 158.46 C 326.666 158.462 326.531 158.571 326.531 158.703 C 326.531 158.836 326.206 158.944 325.81 158.944 C 325.414 158.944 325.09 158.836 325.09 158.703 C 325.09 158.571 324.886 158.463 324.636 158.463 C 324.123 158.463 323.89 158.017 323.89 157.033 C 323.89 155.766 324.176 154.862 324.58 154.858 C 324.794 154.856 325.24 154.705 325.57 154.522 C 325.9 154.339 326.738 154.178 327.431 154.165 L 328.691 154.142 L 328.691 155.611" stroke="none" fill-rule="evenodd" style="fill: rgb(220, 38, 38);"/>
</svg>